<?xml version="1.0" encoding="utf-8" standalone="no"?>
<!DOCTYPE svg PUBLIC "-//W3C//DTD SVG 1.1//EN"
  "http://www.w3.org/Graphics/SVG/1.1/DTD/svg11.dtd">
<!-- Created with matplotlib (http://matplotlib.org/) -->
<svg height="288pt" version="1.1" viewBox="0 0 432 288" width="432pt" xmlns="http://www.w3.org/2000/svg" xmlns:xlink="http://www.w3.org/1999/xlink">
 <defs>
  <style type="text/css">
*{stroke-linecap:butt;stroke-linejoin:round;}
  </style>
 </defs>
 <g id="figure_1">
  <g id="patch_1">
   <path d="M 0 288 
L 432 288 
L 432 0 
L 0 0 
z
" style="fill:#ffffff;"/>
  </g>
  <g id="axes_1">
   <g id="patch_2">
    <path d="M 54 252 
L 388.8 252 
L 388.8 34.56 
L 54 34.56 
z
" style="fill:#eaeaf2;"/>
   </g>
   <g id="matplotlib.axis_1">
    <g id="xtick_1">
     <g id="line2d_1">
      <path clip-path="url(#pa1e5b7db02)" d="M 69.218182 252 
L 69.218182 34.56 
" style="fill:none;stroke:#ffffff;stroke-linecap:round;stroke-width:0.8;"/>
     </g>
     <g id="line2d_2"/>
     <g id="text_1">
      <!-- 0 -->
      <defs>
       <path d="M 31.78125 66.40625 
Q 24.171875 66.40625 20.328125 58.90625 
Q 16.5 51.421875 16.5 36.375 
Q 16.5 21.390625 20.328125 13.890625 
Q 24.171875 6.390625 31.78125 6.390625 
Q 39.453125 6.390625 43.28125 13.890625 
Q 47.125 21.390625 47.125 36.375 
Q 47.125 51.421875 43.28125 58.90625 
Q 39.453125 66.40625 31.78125 66.40625 
z
M 31.78125 74.21875 
Q 44.046875 74.21875 50.515625 64.515625 
Q 56.984375 54.828125 56.984375 36.375 
Q 56.984375 17.96875 50.515625 8.265625 
Q 44.046875 -1.421875 31.78125 -1.421875 
Q 19.53125 -1.421875 13.0625 8.265625 
Q 6.59375 17.96875 6.59375 36.375 
Q 6.59375 54.828125 13.0625 64.515625 
Q 19.53125 74.21875 31.78125 74.21875 
z
" id="DejaVuSans-30"/>
      </defs>
      <g style="fill:#262626;" transform="translate(66.036932 263.098437)scale(0.1 -0.1)">
       <use xlink:href="#DejaVuSans-30"/>
      </g>
     </g>
    </g>
    <g id="xtick_2">
     <g id="line2d_3">
      <path clip-path="url(#pa1e5b7db02)" d="M 130.212899 252 
L 130.212899 34.56 
" style="fill:none;stroke:#ffffff;stroke-linecap:round;stroke-width:0.8;"/>
     </g>
     <g id="line2d_4"/>
     <g id="text_2">
      <!-- 200 -->
      <defs>
       <path d="M 19.1875 8.296875 
L 53.609375 8.296875 
L 53.609375 0 
L 7.328125 0 
L 7.328125 8.296875 
Q 12.9375 14.109375 22.625 23.890625 
Q 32.328125 33.6875 34.8125 36.53125 
Q 39.546875 41.84375 41.421875 45.53125 
Q 43.3125 49.21875 43.3125 52.78125 
Q 43.3125 58.59375 39.234375 62.25 
Q 35.15625 65.921875 28.609375 65.921875 
Q 23.96875 65.921875 18.8125 64.3125 
Q 13.671875 62.703125 7.8125 59.421875 
L 7.8125 69.390625 
Q 13.765625 71.78125 18.9375 73 
Q 24.125 74.21875 28.421875 74.21875 
Q 39.75 74.21875 46.484375 68.546875 
Q 53.21875 62.890625 53.21875 53.421875 
Q 53.21875 48.921875 51.53125 44.890625 
Q 49.859375 40.875 45.40625 35.40625 
Q 44.1875 33.984375 37.640625 27.21875 
Q 31.109375 20.453125 19.1875 8.296875 
z
" id="DejaVuSans-32"/>
      </defs>
      <g style="fill:#262626;" transform="translate(120.669149 263.098437)scale(0.1 -0.1)">
       <use xlink:href="#DejaVuSans-32"/>
       <use x="63.623047" xlink:href="#DejaVuSans-30"/>
       <use x="127.246094" xlink:href="#DejaVuSans-30"/>
      </g>
     </g>
    </g>
    <g id="xtick_3">
     <g id="line2d_5">
      <path clip-path="url(#pa1e5b7db02)" d="M 191.207615 252 
L 191.207615 34.56 
" style="fill:none;stroke:#ffffff;stroke-linecap:round;stroke-width:0.8;"/>
     </g>
     <g id="line2d_6"/>
     <g id="text_3">
      <!-- 400 -->
      <defs>
       <path d="M 37.796875 64.3125 
L 12.890625 25.390625 
L 37.796875 25.390625 
z
M 35.203125 72.90625 
L 47.609375 72.90625 
L 47.609375 25.390625 
L 58.015625 25.390625 
L 58.015625 17.1875 
L 47.609375 17.1875 
L 47.609375 0 
L 37.796875 0 
L 37.796875 17.1875 
L 4.890625 17.1875 
L 4.890625 26.703125 
z
" id="DejaVuSans-34"/>
      </defs>
      <g style="fill:#262626;" transform="translate(181.663865 263.098437)scale(0.1 -0.1)">
       <use xlink:href="#DejaVuSans-34"/>
       <use x="63.623047" xlink:href="#DejaVuSans-30"/>
       <use x="127.246094" xlink:href="#DejaVuSans-30"/>
      </g>
     </g>
    </g>
    <g id="xtick_4">
     <g id="line2d_7">
      <path clip-path="url(#pa1e5b7db02)" d="M 252.202332 252 
L 252.202332 34.56 
" style="fill:none;stroke:#ffffff;stroke-linecap:round;stroke-width:0.8;"/>
     </g>
     <g id="line2d_8"/>
     <g id="text_4">
      <!-- 600 -->
      <defs>
       <path d="M 33.015625 40.375 
Q 26.375 40.375 22.484375 35.828125 
Q 18.609375 31.296875 18.609375 23.390625 
Q 18.609375 15.53125 22.484375 10.953125 
Q 26.375 6.390625 33.015625 6.390625 
Q 39.65625 6.390625 43.53125 10.953125 
Q 47.40625 15.53125 47.40625 23.390625 
Q 47.40625 31.296875 43.53125 35.828125 
Q 39.65625 40.375 33.015625 40.375 
z
M 52.59375 71.296875 
L 52.59375 62.3125 
Q 48.875 64.0625 45.09375 64.984375 
Q 41.3125 65.921875 37.59375 65.921875 
Q 27.828125 65.921875 22.671875 59.328125 
Q 17.53125 52.734375 16.796875 39.40625 
Q 19.671875 43.65625 24.015625 45.921875 
Q 28.375 48.1875 33.59375 48.1875 
Q 44.578125 48.1875 50.953125 41.515625 
Q 57.328125 34.859375 57.328125 23.390625 
Q 57.328125 12.15625 50.6875 5.359375 
Q 44.046875 -1.421875 33.015625 -1.421875 
Q 20.359375 -1.421875 13.671875 8.265625 
Q 6.984375 17.96875 6.984375 36.375 
Q 6.984375 53.65625 15.1875 63.9375 
Q 23.390625 74.21875 37.203125 74.21875 
Q 40.921875 74.21875 44.703125 73.484375 
Q 48.484375 72.75 52.59375 71.296875 
z
" id="DejaVuSans-36"/>
      </defs>
      <g style="fill:#262626;" transform="translate(242.658582 263.098437)scale(0.1 -0.1)">
       <use xlink:href="#DejaVuSans-36"/>
       <use x="63.623047" xlink:href="#DejaVuSans-30"/>
       <use x="127.246094" xlink:href="#DejaVuSans-30"/>
      </g>
     </g>
    </g>
    <g id="xtick_5">
     <g id="line2d_9">
      <path clip-path="url(#pa1e5b7db02)" d="M 313.197049 252 
L 313.197049 34.56 
" style="fill:none;stroke:#ffffff;stroke-linecap:round;stroke-width:0.8;"/>
     </g>
     <g id="line2d_10"/>
     <g id="text_5">
      <!-- 800 -->
      <defs>
       <path d="M 31.78125 34.625 
Q 24.75 34.625 20.71875 30.859375 
Q 16.703125 27.09375 16.703125 20.515625 
Q 16.703125 13.921875 20.71875 10.15625 
Q 24.75 6.390625 31.78125 6.390625 
Q 38.8125 6.390625 42.859375 10.171875 
Q 46.921875 13.96875 46.921875 20.515625 
Q 46.921875 27.09375 42.890625 30.859375 
Q 38.875 34.625 31.78125 34.625 
z
M 21.921875 38.8125 
Q 15.578125 40.375 12.03125 44.71875 
Q 8.5 49.078125 8.5 55.328125 
Q 8.5 64.0625 14.71875 69.140625 
Q 20.953125 74.21875 31.78125 74.21875 
Q 42.671875 74.21875 48.875 69.140625 
Q 55.078125 64.0625 55.078125 55.328125 
Q 55.078125 49.078125 51.53125 44.71875 
Q 48 40.375 41.703125 38.8125 
Q 48.828125 37.15625 52.796875 32.3125 
Q 56.78125 27.484375 56.78125 20.515625 
Q 56.78125 9.90625 50.3125 4.234375 
Q 43.84375 -1.421875 31.78125 -1.421875 
Q 19.734375 -1.421875 13.25 4.234375 
Q 6.78125 9.90625 6.78125 20.515625 
Q 6.78125 27.484375 10.78125 32.3125 
Q 14.796875 37.15625 21.921875 38.8125 
z
M 18.3125 54.390625 
Q 18.3125 48.734375 21.84375 45.5625 
Q 25.390625 42.390625 31.78125 42.390625 
Q 38.140625 42.390625 41.71875 45.5625 
Q 45.3125 48.734375 45.3125 54.390625 
Q 45.3125 60.0625 41.71875 63.234375 
Q 38.140625 66.40625 31.78125 66.40625 
Q 25.390625 66.40625 21.84375 63.234375 
Q 18.3125 60.0625 18.3125 54.390625 
z
" id="DejaVuSans-38"/>
      </defs>
      <g style="fill:#262626;" transform="translate(303.653299 263.098437)scale(0.1 -0.1)">
       <use xlink:href="#DejaVuSans-38"/>
       <use x="63.623047" xlink:href="#DejaVuSans-30"/>
       <use x="127.246094" xlink:href="#DejaVuSans-30"/>
      </g>
     </g>
    </g>
    <g id="xtick_6">
     <g id="line2d_11">
      <path clip-path="url(#pa1e5b7db02)" d="M 374.191765 252 
L 374.191765 34.56 
" style="fill:none;stroke:#ffffff;stroke-linecap:round;stroke-width:0.8;"/>
     </g>
     <g id="line2d_12"/>
     <g id="text_6">
      <!-- 1000 -->
      <defs>
       <path d="M 12.40625 8.296875 
L 28.515625 8.296875 
L 28.515625 63.921875 
L 10.984375 60.40625 
L 10.984375 69.390625 
L 28.421875 72.90625 
L 38.28125 72.90625 
L 38.28125 8.296875 
L 54.390625 8.296875 
L 54.390625 0 
L 12.40625 0 
z
" id="DejaVuSans-31"/>
      </defs>
      <g style="fill:#262626;" transform="translate(361.466765 263.098437)scale(0.1 -0.1)">
       <use xlink:href="#DejaVuSans-31"/>
       <use x="63.623047" xlink:href="#DejaVuSans-30"/>
       <use x="127.246094" xlink:href="#DejaVuSans-30"/>
       <use x="190.869141" xlink:href="#DejaVuSans-30"/>
      </g>
     </g>
    </g>
    <g id="text_7">
     <!-- Global steps -->
     <defs>
      <path d="M 59.515625 10.40625 
L 59.515625 29.984375 
L 43.40625 29.984375 
L 43.40625 38.09375 
L 69.28125 38.09375 
L 69.28125 6.78125 
Q 63.578125 2.734375 56.6875 0.65625 
Q 49.8125 -1.421875 42 -1.421875 
Q 24.90625 -1.421875 15.25 8.5625 
Q 5.609375 18.5625 5.609375 36.375 
Q 5.609375 54.25 15.25 64.234375 
Q 24.90625 74.21875 42 74.21875 
Q 49.125 74.21875 55.546875 72.453125 
Q 61.96875 70.703125 67.390625 67.28125 
L 67.390625 56.78125 
Q 61.921875 61.421875 55.765625 63.765625 
Q 49.609375 66.109375 42.828125 66.109375 
Q 29.4375 66.109375 22.71875 58.640625 
Q 16.015625 51.171875 16.015625 36.375 
Q 16.015625 21.625 22.71875 14.15625 
Q 29.4375 6.6875 42.828125 6.6875 
Q 48.046875 6.6875 52.140625 7.59375 
Q 56.25 8.5 59.515625 10.40625 
z
" id="DejaVuSans-47"/>
      <path d="M 9.421875 75.984375 
L 18.40625 75.984375 
L 18.40625 0 
L 9.421875 0 
z
" id="DejaVuSans-6c"/>
      <path d="M 30.609375 48.390625 
Q 23.390625 48.390625 19.1875 42.75 
Q 14.984375 37.109375 14.984375 27.296875 
Q 14.984375 17.484375 19.15625 11.84375 
Q 23.34375 6.203125 30.609375 6.203125 
Q 37.796875 6.203125 41.984375 11.859375 
Q 46.1875 17.53125 46.1875 27.296875 
Q 46.1875 37.015625 41.984375 42.703125 
Q 37.796875 48.390625 30.609375 48.390625 
z
M 30.609375 56 
Q 42.328125 56 49.015625 48.375 
Q 55.71875 40.765625 55.71875 27.296875 
Q 55.71875 13.875 49.015625 6.21875 
Q 42.328125 -1.421875 30.609375 -1.421875 
Q 18.84375 -1.421875 12.171875 6.21875 
Q 5.515625 13.875 5.515625 27.296875 
Q 5.515625 40.765625 12.171875 48.375 
Q 18.84375 56 30.609375 56 
z
" id="DejaVuSans-6f"/>
      <path d="M 48.6875 27.296875 
Q 48.6875 37.203125 44.609375 42.84375 
Q 40.53125 48.484375 33.40625 48.484375 
Q 26.265625 48.484375 22.1875 42.84375 
Q 18.109375 37.203125 18.109375 27.296875 
Q 18.109375 17.390625 22.1875 11.75 
Q 26.265625 6.109375 33.40625 6.109375 
Q 40.53125 6.109375 44.609375 11.75 
Q 48.6875 17.390625 48.6875 27.296875 
z
M 18.109375 46.390625 
Q 20.953125 51.265625 25.265625 53.625 
Q 29.59375 56 35.59375 56 
Q 45.5625 56 51.78125 48.09375 
Q 58.015625 40.1875 58.015625 27.296875 
Q 58.015625 14.40625 51.78125 6.484375 
Q 45.5625 -1.421875 35.59375 -1.421875 
Q 29.59375 -1.421875 25.265625 0.953125 
Q 20.953125 3.328125 18.109375 8.203125 
L 18.109375 0 
L 9.078125 0 
L 9.078125 75.984375 
L 18.109375 75.984375 
z
" id="DejaVuSans-62"/>
      <path d="M 34.28125 27.484375 
Q 23.390625 27.484375 19.1875 25 
Q 14.984375 22.515625 14.984375 16.5 
Q 14.984375 11.71875 18.140625 8.90625 
Q 21.296875 6.109375 26.703125 6.109375 
Q 34.1875 6.109375 38.703125 11.40625 
Q 43.21875 16.703125 43.21875 25.484375 
L 43.21875 27.484375 
z
M 52.203125 31.203125 
L 52.203125 0 
L 43.21875 0 
L 43.21875 8.296875 
Q 40.140625 3.328125 35.546875 0.953125 
Q 30.953125 -1.421875 24.3125 -1.421875 
Q 15.921875 -1.421875 10.953125 3.296875 
Q 6 8.015625 6 15.921875 
Q 6 25.140625 12.171875 29.828125 
Q 18.359375 34.515625 30.609375 34.515625 
L 43.21875 34.515625 
L 43.21875 35.40625 
Q 43.21875 41.609375 39.140625 45 
Q 35.0625 48.390625 27.6875 48.390625 
Q 23 48.390625 18.546875 47.265625 
Q 14.109375 46.140625 10.015625 43.890625 
L 10.015625 52.203125 
Q 14.9375 54.109375 19.578125 55.046875 
Q 24.21875 56 28.609375 56 
Q 40.484375 56 46.34375 49.84375 
Q 52.203125 43.703125 52.203125 31.203125 
z
" id="DejaVuSans-61"/>
      <path id="DejaVuSans-20"/>
      <path d="M 44.28125 53.078125 
L 44.28125 44.578125 
Q 40.484375 46.53125 36.375 47.5 
Q 32.28125 48.484375 27.875 48.484375 
Q 21.1875 48.484375 17.84375 46.4375 
Q 14.5 44.390625 14.5 40.28125 
Q 14.5 37.15625 16.890625 35.375 
Q 19.28125 33.59375 26.515625 31.984375 
L 29.59375 31.296875 
Q 39.15625 29.25 43.1875 25.515625 
Q 47.21875 21.78125 47.21875 15.09375 
Q 47.21875 7.46875 41.1875 3.015625 
Q 35.15625 -1.421875 24.609375 -1.421875 
Q 20.21875 -1.421875 15.453125 -0.5625 
Q 10.6875 0.296875 5.421875 2 
L 5.421875 11.28125 
Q 10.40625 8.6875 15.234375 7.390625 
Q 20.0625 6.109375 24.8125 6.109375 
Q 31.15625 6.109375 34.5625 8.28125 
Q 37.984375 10.453125 37.984375 14.40625 
Q 37.984375 18.0625 35.515625 20.015625 
Q 33.0625 21.96875 24.703125 23.78125 
L 21.578125 24.515625 
Q 13.234375 26.265625 9.515625 29.90625 
Q 5.8125 33.546875 5.8125 39.890625 
Q 5.8125 47.609375 11.28125 51.796875 
Q 16.75 56 26.8125 56 
Q 31.78125 56 36.171875 55.265625 
Q 40.578125 54.546875 44.28125 53.078125 
z
" id="DejaVuSans-73"/>
      <path d="M 18.3125 70.21875 
L 18.3125 54.6875 
L 36.8125 54.6875 
L 36.8125 47.703125 
L 18.3125 47.703125 
L 18.3125 18.015625 
Q 18.3125 11.328125 20.140625 9.421875 
Q 21.96875 7.515625 27.59375 7.515625 
L 36.8125 7.515625 
L 36.8125 0 
L 27.59375 0 
Q 17.1875 0 13.234375 3.875 
Q 9.28125 7.765625 9.28125 18.015625 
L 9.28125 47.703125 
L 2.6875 47.703125 
L 2.6875 54.6875 
L 9.28125 54.6875 
L 9.28125 70.21875 
z
" id="DejaVuSans-74"/>
      <path d="M 56.203125 29.59375 
L 56.203125 25.203125 
L 14.890625 25.203125 
Q 15.484375 15.921875 20.484375 11.0625 
Q 25.484375 6.203125 34.421875 6.203125 
Q 39.59375 6.203125 44.453125 7.46875 
Q 49.3125 8.734375 54.109375 11.28125 
L 54.109375 2.78125 
Q 49.265625 0.734375 44.1875 -0.34375 
Q 39.109375 -1.421875 33.890625 -1.421875 
Q 20.796875 -1.421875 13.15625 6.1875 
Q 5.515625 13.8125 5.515625 26.8125 
Q 5.515625 40.234375 12.765625 48.109375 
Q 20.015625 56 32.328125 56 
Q 43.359375 56 49.78125 48.890625 
Q 56.203125 41.796875 56.203125 29.59375 
z
M 47.21875 32.234375 
Q 47.125 39.59375 43.09375 43.984375 
Q 39.0625 48.390625 32.421875 48.390625 
Q 24.90625 48.390625 20.390625 44.140625 
Q 15.875 39.890625 15.1875 32.171875 
z
" id="DejaVuSans-65"/>
      <path d="M 18.109375 8.203125 
L 18.109375 -20.796875 
L 9.078125 -20.796875 
L 9.078125 54.6875 
L 18.109375 54.6875 
L 18.109375 46.390625 
Q 20.953125 51.265625 25.265625 53.625 
Q 29.59375 56 35.59375 56 
Q 45.5625 56 51.78125 48.09375 
Q 58.015625 40.1875 58.015625 27.296875 
Q 58.015625 14.40625 51.78125 6.484375 
Q 45.5625 -1.421875 35.59375 -1.421875 
Q 29.59375 -1.421875 25.265625 0.953125 
Q 20.953125 3.328125 18.109375 8.203125 
z
M 48.6875 27.296875 
Q 48.6875 37.203125 44.609375 42.84375 
Q 40.53125 48.484375 33.40625 48.484375 
Q 26.265625 48.484375 22.1875 42.84375 
Q 18.109375 37.203125 18.109375 27.296875 
Q 18.109375 17.390625 22.1875 11.75 
Q 26.265625 6.109375 33.40625 6.109375 
Q 40.53125 6.109375 44.609375 11.75 
Q 48.6875 17.390625 48.6875 27.296875 
z
" id="DejaVuSans-70"/>
     </defs>
     <g style="fill:#262626;" transform="translate(190.440625 276.776563)scale(0.1 -0.1)">
      <use xlink:href="#DejaVuSans-47"/>
      <use x="77.490234" xlink:href="#DejaVuSans-6c"/>
      <use x="105.273438" xlink:href="#DejaVuSans-6f"/>
      <use x="166.455078" xlink:href="#DejaVuSans-62"/>
      <use x="229.931641" xlink:href="#DejaVuSans-61"/>
      <use x="291.210938" xlink:href="#DejaVuSans-6c"/>
      <use x="318.994141" xlink:href="#DejaVuSans-20"/>
      <use x="350.78125" xlink:href="#DejaVuSans-73"/>
      <use x="402.880859" xlink:href="#DejaVuSans-74"/>
      <use x="442.089844" xlink:href="#DejaVuSans-65"/>
      <use x="503.613281" xlink:href="#DejaVuSans-70"/>
      <use x="567.089844" xlink:href="#DejaVuSans-73"/>
     </g>
    </g>
   </g>
   <g id="matplotlib.axis_2">
    <g id="ytick_1">
     <g id="line2d_13">
      <path clip-path="url(#pa1e5b7db02)" d="M 54 232.163633 
L 388.8 232.163633 
" style="fill:none;stroke:#ffffff;stroke-linecap:round;stroke-width:0.8;"/>
     </g>
     <g id="line2d_14"/>
     <g id="text_8">
      <!-- 3.0 -->
      <defs>
       <path d="M 40.578125 39.3125 
Q 47.65625 37.796875 51.625 33 
Q 55.609375 28.21875 55.609375 21.1875 
Q 55.609375 10.40625 48.1875 4.484375 
Q 40.765625 -1.421875 27.09375 -1.421875 
Q 22.515625 -1.421875 17.65625 -0.515625 
Q 12.796875 0.390625 7.625 2.203125 
L 7.625 11.71875 
Q 11.71875 9.328125 16.59375 8.109375 
Q 21.484375 6.890625 26.8125 6.890625 
Q 36.078125 6.890625 40.9375 10.546875 
Q 45.796875 14.203125 45.796875 21.1875 
Q 45.796875 27.640625 41.28125 31.265625 
Q 36.765625 34.90625 28.71875 34.90625 
L 20.21875 34.90625 
L 20.21875 43.015625 
L 29.109375 43.015625 
Q 36.375 43.015625 40.234375 45.921875 
Q 44.09375 48.828125 44.09375 54.296875 
Q 44.09375 59.90625 40.109375 62.90625 
Q 36.140625 65.921875 28.71875 65.921875 
Q 24.65625 65.921875 20.015625 65.03125 
Q 15.375 64.15625 9.8125 62.3125 
L 9.8125 71.09375 
Q 15.4375 72.65625 20.34375 73.4375 
Q 25.25 74.21875 29.59375 74.21875 
Q 40.828125 74.21875 47.359375 69.109375 
Q 53.90625 64.015625 53.90625 55.328125 
Q 53.90625 49.265625 50.4375 45.09375 
Q 46.96875 40.921875 40.578125 39.3125 
z
" id="DejaVuSans-33"/>
       <path d="M 10.6875 12.40625 
L 21 12.40625 
L 21 0 
L 10.6875 0 
z
" id="DejaVuSans-2e"/>
      </defs>
      <g style="fill:#262626;" transform="translate(34.596875 235.962852)scale(0.1 -0.1)">
       <use xlink:href="#DejaVuSans-33"/>
       <use x="63.623047" xlink:href="#DejaVuSans-2e"/>
       <use x="95.410156" xlink:href="#DejaVuSans-30"/>
      </g>
     </g>
    </g>
    <g id="ytick_2">
     <g id="line2d_15">
      <path clip-path="url(#pa1e5b7db02)" d="M 54 193.545676 
L 388.8 193.545676 
" style="fill:none;stroke:#ffffff;stroke-linecap:round;stroke-width:0.8;"/>
     </g>
     <g id="line2d_16"/>
     <g id="text_9">
      <!-- 3.5 -->
      <defs>
       <path d="M 10.796875 72.90625 
L 49.515625 72.90625 
L 49.515625 64.59375 
L 19.828125 64.59375 
L 19.828125 46.734375 
Q 21.96875 47.46875 24.109375 47.828125 
Q 26.265625 48.1875 28.421875 48.1875 
Q 40.625 48.1875 47.75 41.5 
Q 54.890625 34.8125 54.890625 23.390625 
Q 54.890625 11.625 47.5625 5.09375 
Q 40.234375 -1.421875 26.90625 -1.421875 
Q 22.3125 -1.421875 17.546875 -0.640625 
Q 12.796875 0.140625 7.71875 1.703125 
L 7.71875 11.625 
Q 12.109375 9.234375 16.796875 8.0625 
Q 21.484375 6.890625 26.703125 6.890625 
Q 35.15625 6.890625 40.078125 11.328125 
Q 45.015625 15.765625 45.015625 23.390625 
Q 45.015625 31 40.078125 35.4375 
Q 35.15625 39.890625 26.703125 39.890625 
Q 22.75 39.890625 18.8125 39.015625 
Q 14.890625 38.140625 10.796875 36.28125 
z
" id="DejaVuSans-35"/>
      </defs>
      <g style="fill:#262626;" transform="translate(34.596875 197.344895)scale(0.1 -0.1)">
       <use xlink:href="#DejaVuSans-33"/>
       <use x="63.623047" xlink:href="#DejaVuSans-2e"/>
       <use x="95.410156" xlink:href="#DejaVuSans-35"/>
      </g>
     </g>
    </g>
    <g id="ytick_3">
     <g id="line2d_17">
      <path clip-path="url(#pa1e5b7db02)" d="M 54 154.927718 
L 388.8 154.927718 
" style="fill:none;stroke:#ffffff;stroke-linecap:round;stroke-width:0.8;"/>
     </g>
     <g id="line2d_18"/>
     <g id="text_10">
      <!-- 4.0 -->
      <g style="fill:#262626;" transform="translate(34.596875 158.726937)scale(0.1 -0.1)">
       <use xlink:href="#DejaVuSans-34"/>
       <use x="63.623047" xlink:href="#DejaVuSans-2e"/>
       <use x="95.410156" xlink:href="#DejaVuSans-30"/>
      </g>
     </g>
    </g>
    <g id="ytick_4">
     <g id="line2d_19">
      <path clip-path="url(#pa1e5b7db02)" d="M 54 116.309761 
L 388.8 116.309761 
" style="fill:none;stroke:#ffffff;stroke-linecap:round;stroke-width:0.8;"/>
     </g>
     <g id="line2d_20"/>
     <g id="text_11">
      <!-- 4.5 -->
      <g style="fill:#262626;" transform="translate(34.596875 120.10898)scale(0.1 -0.1)">
       <use xlink:href="#DejaVuSans-34"/>
       <use x="63.623047" xlink:href="#DejaVuSans-2e"/>
       <use x="95.410156" xlink:href="#DejaVuSans-35"/>
      </g>
     </g>
    </g>
    <g id="ytick_5">
     <g id="line2d_21">
      <path clip-path="url(#pa1e5b7db02)" d="M 54 77.691803 
L 388.8 77.691803 
" style="fill:none;stroke:#ffffff;stroke-linecap:round;stroke-width:0.8;"/>
     </g>
     <g id="line2d_22"/>
     <g id="text_12">
      <!-- 5.0 -->
      <g style="fill:#262626;" transform="translate(34.596875 81.491022)scale(0.1 -0.1)">
       <use xlink:href="#DejaVuSans-35"/>
       <use x="63.623047" xlink:href="#DejaVuSans-2e"/>
       <use x="95.410156" xlink:href="#DejaVuSans-30"/>
      </g>
     </g>
    </g>
    <g id="ytick_6">
     <g id="line2d_23">
      <path clip-path="url(#pa1e5b7db02)" d="M 54 39.073846 
L 388.8 39.073846 
" style="fill:none;stroke:#ffffff;stroke-linecap:round;stroke-width:0.8;"/>
     </g>
     <g id="line2d_24"/>
     <g id="text_13">
      <!-- 5.5 -->
      <g style="fill:#262626;" transform="translate(34.596875 42.873065)scale(0.1 -0.1)">
       <use xlink:href="#DejaVuSans-35"/>
       <use x="63.623047" xlink:href="#DejaVuSans-2e"/>
       <use x="95.410156" xlink:href="#DejaVuSans-35"/>
      </g>
     </g>
    </g>
    <g id="text_14">
     <!-- Delay(Normalized wall clock) -->
     <defs>
      <path d="M 19.671875 64.796875 
L 19.671875 8.109375 
L 31.59375 8.109375 
Q 46.6875 8.109375 53.6875 14.9375 
Q 60.6875 21.78125 60.6875 36.53125 
Q 60.6875 51.171875 53.6875 57.984375 
Q 46.6875 64.796875 31.59375 64.796875 
z
M 9.8125 72.90625 
L 30.078125 72.90625 
Q 51.265625 72.90625 61.171875 64.09375 
Q 71.09375 55.28125 71.09375 36.53125 
Q 71.09375 17.671875 61.125 8.828125 
Q 51.171875 0 30.078125 0 
L 9.8125 0 
z
" id="DejaVuSans-44"/>
      <path d="M 32.171875 -5.078125 
Q 28.375 -14.84375 24.75 -17.8125 
Q 21.140625 -20.796875 15.09375 -20.796875 
L 7.90625 -20.796875 
L 7.90625 -13.28125 
L 13.1875 -13.28125 
Q 16.890625 -13.28125 18.9375 -11.515625 
Q 21 -9.765625 23.484375 -3.21875 
L 25.09375 0.875 
L 2.984375 54.6875 
L 12.5 54.6875 
L 29.59375 11.921875 
L 46.6875 54.6875 
L 56.203125 54.6875 
z
" id="DejaVuSans-79"/>
      <path d="M 31 75.875 
Q 24.46875 64.65625 21.28125 53.65625 
Q 18.109375 42.671875 18.109375 31.390625 
Q 18.109375 20.125 21.3125 9.0625 
Q 24.515625 -2 31 -13.1875 
L 23.1875 -13.1875 
Q 15.875 -1.703125 12.234375 9.375 
Q 8.59375 20.453125 8.59375 31.390625 
Q 8.59375 42.28125 12.203125 53.3125 
Q 15.828125 64.359375 23.1875 75.875 
z
" id="DejaVuSans-28"/>
      <path d="M 9.8125 72.90625 
L 23.09375 72.90625 
L 55.421875 11.921875 
L 55.421875 72.90625 
L 64.984375 72.90625 
L 64.984375 0 
L 51.703125 0 
L 19.390625 60.984375 
L 19.390625 0 
L 9.8125 0 
z
" id="DejaVuSans-4e"/>
      <path d="M 41.109375 46.296875 
Q 39.59375 47.171875 37.8125 47.578125 
Q 36.03125 48 33.890625 48 
Q 26.265625 48 22.1875 43.046875 
Q 18.109375 38.09375 18.109375 28.8125 
L 18.109375 0 
L 9.078125 0 
L 9.078125 54.6875 
L 18.109375 54.6875 
L 18.109375 46.1875 
Q 20.953125 51.171875 25.484375 53.578125 
Q 30.03125 56 36.53125 56 
Q 37.453125 56 38.578125 55.875 
Q 39.703125 55.765625 41.0625 55.515625 
z
" id="DejaVuSans-72"/>
      <path d="M 52 44.1875 
Q 55.375 50.25 60.0625 53.125 
Q 64.75 56 71.09375 56 
Q 79.640625 56 84.28125 50.015625 
Q 88.921875 44.046875 88.921875 33.015625 
L 88.921875 0 
L 79.890625 0 
L 79.890625 32.71875 
Q 79.890625 40.578125 77.09375 44.375 
Q 74.3125 48.1875 68.609375 48.1875 
Q 61.625 48.1875 57.5625 43.546875 
Q 53.515625 38.921875 53.515625 30.90625 
L 53.515625 0 
L 44.484375 0 
L 44.484375 32.71875 
Q 44.484375 40.625 41.703125 44.40625 
Q 38.921875 48.1875 33.109375 48.1875 
Q 26.21875 48.1875 22.15625 43.53125 
Q 18.109375 38.875 18.109375 30.90625 
L 18.109375 0 
L 9.078125 0 
L 9.078125 54.6875 
L 18.109375 54.6875 
L 18.109375 46.1875 
Q 21.1875 51.21875 25.484375 53.609375 
Q 29.78125 56 35.6875 56 
Q 41.65625 56 45.828125 52.96875 
Q 50 49.953125 52 44.1875 
z
" id="DejaVuSans-6d"/>
      <path d="M 9.421875 54.6875 
L 18.40625 54.6875 
L 18.40625 0 
L 9.421875 0 
z
M 9.421875 75.984375 
L 18.40625 75.984375 
L 18.40625 64.59375 
L 9.421875 64.59375 
z
" id="DejaVuSans-69"/>
      <path d="M 5.515625 54.6875 
L 48.1875 54.6875 
L 48.1875 46.484375 
L 14.40625 7.171875 
L 48.1875 7.171875 
L 48.1875 0 
L 4.296875 0 
L 4.296875 8.203125 
L 38.09375 47.515625 
L 5.515625 47.515625 
z
" id="DejaVuSans-7a"/>
      <path d="M 45.40625 46.390625 
L 45.40625 75.984375 
L 54.390625 75.984375 
L 54.390625 0 
L 45.40625 0 
L 45.40625 8.203125 
Q 42.578125 3.328125 38.25 0.953125 
Q 33.9375 -1.421875 27.875 -1.421875 
Q 17.96875 -1.421875 11.734375 6.484375 
Q 5.515625 14.40625 5.515625 27.296875 
Q 5.515625 40.1875 11.734375 48.09375 
Q 17.96875 56 27.875 56 
Q 33.9375 56 38.25 53.625 
Q 42.578125 51.265625 45.40625 46.390625 
z
M 14.796875 27.296875 
Q 14.796875 17.390625 18.875 11.75 
Q 22.953125 6.109375 30.078125 6.109375 
Q 37.203125 6.109375 41.296875 11.75 
Q 45.40625 17.390625 45.40625 27.296875 
Q 45.40625 37.203125 41.296875 42.84375 
Q 37.203125 48.484375 30.078125 48.484375 
Q 22.953125 48.484375 18.875 42.84375 
Q 14.796875 37.203125 14.796875 27.296875 
z
" id="DejaVuSans-64"/>
      <path d="M 4.203125 54.6875 
L 13.1875 54.6875 
L 24.421875 12.015625 
L 35.59375 54.6875 
L 46.1875 54.6875 
L 57.421875 12.015625 
L 68.609375 54.6875 
L 77.59375 54.6875 
L 63.28125 0 
L 52.6875 0 
L 40.921875 44.828125 
L 29.109375 0 
L 18.5 0 
z
" id="DejaVuSans-77"/>
      <path d="M 48.78125 52.59375 
L 48.78125 44.1875 
Q 44.96875 46.296875 41.140625 47.34375 
Q 37.3125 48.390625 33.40625 48.390625 
Q 24.65625 48.390625 19.8125 42.84375 
Q 14.984375 37.3125 14.984375 27.296875 
Q 14.984375 17.28125 19.8125 11.734375 
Q 24.65625 6.203125 33.40625 6.203125 
Q 37.3125 6.203125 41.140625 7.25 
Q 44.96875 8.296875 48.78125 10.40625 
L 48.78125 2.09375 
Q 45.015625 0.34375 40.984375 -0.53125 
Q 36.96875 -1.421875 32.421875 -1.421875 
Q 20.0625 -1.421875 12.78125 6.34375 
Q 5.515625 14.109375 5.515625 27.296875 
Q 5.515625 40.671875 12.859375 48.328125 
Q 20.21875 56 33.015625 56 
Q 37.15625 56 41.109375 55.140625 
Q 45.0625 54.296875 48.78125 52.59375 
z
" id="DejaVuSans-63"/>
      <path d="M 9.078125 75.984375 
L 18.109375 75.984375 
L 18.109375 31.109375 
L 44.921875 54.6875 
L 56.390625 54.6875 
L 27.390625 29.109375 
L 57.625 0 
L 45.90625 0 
L 18.109375 26.703125 
L 18.109375 0 
L 9.078125 0 
z
" id="DejaVuSans-6b"/>
      <path d="M 8.015625 75.875 
L 15.828125 75.875 
Q 23.140625 64.359375 26.78125 53.3125 
Q 30.421875 42.28125 30.421875 31.390625 
Q 30.421875 20.453125 26.78125 9.375 
Q 23.140625 -1.703125 15.828125 -13.1875 
L 8.015625 -13.1875 
Q 14.5 -2 17.703125 9.0625 
Q 20.90625 20.125 20.90625 31.390625 
Q 20.90625 42.671875 17.703125 53.65625 
Q 14.5 64.65625 8.015625 75.875 
z
" id="DejaVuSans-29"/>
     </defs>
     <g style="fill:#262626;" transform="translate(28.517187 215.914375)rotate(-90)scale(0.1 -0.1)">
      <use xlink:href="#DejaVuSans-44"/>
      <use x="77.001953" xlink:href="#DejaVuSans-65"/>
      <use x="138.525391" xlink:href="#DejaVuSans-6c"/>
      <use x="166.308594" xlink:href="#DejaVuSans-61"/>
      <use x="227.587891" xlink:href="#DejaVuSans-79"/>
      <use x="286.767578" xlink:href="#DejaVuSans-28"/>
      <use x="325.78125" xlink:href="#DejaVuSans-4e"/>
      <use x="400.585938" xlink:href="#DejaVuSans-6f"/>
      <use x="461.767578" xlink:href="#DejaVuSans-72"/>
      <use x="502.865234" xlink:href="#DejaVuSans-6d"/>
      <use x="600.277344" xlink:href="#DejaVuSans-61"/>
      <use x="661.556641" xlink:href="#DejaVuSans-6c"/>
      <use x="689.339844" xlink:href="#DejaVuSans-69"/>
      <use x="717.123047" xlink:href="#DejaVuSans-7a"/>
      <use x="769.613281" xlink:href="#DejaVuSans-65"/>
      <use x="831.136719" xlink:href="#DejaVuSans-64"/>
      <use x="894.613281" xlink:href="#DejaVuSans-20"/>
      <use x="926.400391" xlink:href="#DejaVuSans-77"/>
      <use x="1008.1875" xlink:href="#DejaVuSans-61"/>
      <use x="1069.466797" xlink:href="#DejaVuSans-6c"/>
      <use x="1097.25" xlink:href="#DejaVuSans-6c"/>
      <use x="1125.033203" xlink:href="#DejaVuSans-20"/>
      <use x="1156.820312" xlink:href="#DejaVuSans-63"/>
      <use x="1211.800781" xlink:href="#DejaVuSans-6c"/>
      <use x="1239.583984" xlink:href="#DejaVuSans-6f"/>
      <use x="1300.765625" xlink:href="#DejaVuSans-63"/>
      <use x="1355.746094" xlink:href="#DejaVuSans-6b"/>
      <use x="1413.65625" xlink:href="#DejaVuSans-29"/>
     </g>
    </g>
   </g>
   <g id="line2d_25">
    <path clip-path="url(#pa1e5b7db02)" d="M 69.218182 160.129698 
L 69.523155 169.15211 
L 69.828129 165.782666 
L 70.133103 166.161728 
L 70.438076 165.313797 
L 70.74305 140.361775 
L 71.048023 162.403867 
L 71.352997 162.720725 
L 71.65797 160.015712 
L 71.962944 175.358194 
L 72.267918 183.252775 
L 72.572891 152.476199 
L 72.877865 191.103622 
L 73.182838 192.001014 
L 73.487812 192.18422 
L 73.792786 191.247236 
L 74.097759 159.271067 
L 74.402733 140.534834 
L 74.707706 179.336439 
L 75.01268 188.072267 
L 75.317653 187.742501 
L 75.622627 198.426672 
L 75.927601 197.71777 
L 76.232574 193.285222 
L 76.537548 206.123427 
L 76.842521 208.267811 
L 77.147495 208.449286 
L 77.452469 205.807434 
L 77.757442 157.565427 
L 78.062416 224.946834 
L 78.672363 219.222491 
L 78.977336 209.625823 
L 79.28231 210.507472 
L 79.587284 219.793469 
L 79.892257 220.117214 
L 80.502204 168.745021 
L 80.807178 191.420645 
L 81.112152 204.196223 
L 81.417125 202.515073 
L 82.027072 222.491374 
L 82.332046 222.202083 
L 82.637019 222.512735 
L 82.941993 223.280398 
L 83.246967 219.630354 
L 83.55194 214.546687 
L 83.856914 212.722936 
L 84.161887 211.632504 
L 84.466861 214.946502 
L 84.771835 211.569471 
L 85.076808 215.195927 
L 85.381782 214.592981 
L 85.686755 208.100884 
L 85.991729 209.520806 
L 86.296702 208.656927 
L 86.601676 202.873419 
L 86.90665 190.396414 
L 87.211623 189.262119 
L 87.516597 203.289162 
L 87.82157 205.008025 
L 88.126544 203.384623 
L 88.431518 208.797761 
L 88.736491 207.220837 
L 89.041465 207.850318 
L 89.346438 204.441522 
L 89.651412 181.742364 
L 89.956385 214.639865 
L 90.261359 216.112562 
L 90.566333 204.049238 
L 90.871306 216.556683 
L 91.17628 214.726891 
L 91.481253 215.424469 
L 91.786227 212.700691 
L 92.091201 215.736557 
L 92.396174 213.93006 
L 92.701148 215.548159 
L 93.006121 208.239545 
L 93.311095 172.924205 
L 93.616069 196.752668 
L 93.921042 199.656428 
L 94.226016 196.840836 
L 94.530989 200.102998 
L 94.835963 195.623197 
L 95.140936 202.0869 
L 95.44591 177.061386 
L 95.750884 183.08872 
L 96.055857 182.346359 
L 96.360831 164.008026 
L 96.665804 182.240734 
L 96.970778 162.47213 
L 97.580725 175.324256 
L 97.885699 173.551734 
L 98.190672 173.527998 
L 98.495646 171.941554 
L 98.800619 171.296642 
L 99.105593 172.499273 
L 99.410567 169.739495 
L 99.71554 171.303731 
L 100.020514 174.241835 
L 100.325487 166.359407 
L 100.630461 168.536938 
L 100.935435 168.56014 
L 101.240408 106.294698 
L 101.545382 151.373356 
L 101.850355 159.542699 
L 102.155329 161.478724 
L 102.460302 156.324328 
L 102.765276 158.32762 
L 103.07025 161.719309 
L 103.375223 142.214327 
L 103.680197 151.00398 
L 103.98517 145.558119 
L 104.290144 149.569124 
L 104.595118 121.896198 
L 104.900091 145.284278 
L 105.205065 148.367745 
L 105.815012 144.879435 
L 106.119985 143.814747 
L 106.424959 148.293074 
L 106.729933 143.272938 
L 107.034906 145.935156 
L 107.33988 134.894148 
L 107.644853 131.963724 
L 107.949827 134.184049 
L 108.254801 134.056916 
L 108.559774 148.735022 
L 108.864748 142.664376 
L 109.169721 143.213588 
L 109.474695 137.447537 
L 109.779668 128.283259 
L 110.084642 142.087248 
L 110.389616 137.822363 
L 110.694589 136.748228 
L 110.999563 136.552667 
L 111.304536 138.275949 
L 111.60951 139.278083 
L 111.914484 135.402277 
L 112.219457 134.272365 
L 112.524431 139.517434 
L 112.829404 136.255254 
L 113.134378 140.551923 
L 113.439351 132.43484 
L 113.744325 135.373882 
L 114.049299 90.626537 
L 114.354272 103.896415 
L 114.659246 125.242329 
L 114.964219 135.578301 
L 115.269193 138.802437 
L 115.574167 144.898863 
L 115.87914 144.365948 
L 116.184114 142.617861 
L 116.489087 139.866186 
L 116.794061 140.143177 
L 117.099034 140.995491 
L 117.404008 145.339392 
L 117.708982 123.535086 
L 118.013955 121.891815 
L 118.318929 124.006313 
L 118.623902 114.705492 
L 118.928876 146.463136 
L 119.23385 141.824142 
L 119.538823 122.387514 
L 119.843797 142.315901 
L 120.14877 139.228106 
L 120.453744 140.822376 
L 121.063691 145.161785 
L 121.368665 144.585577 
L 121.673638 143.026018 
L 121.978612 139.202399 
L 122.283585 142.422023 
L 122.588559 139.455967 
L 122.893533 138.044571 
L 123.198506 119.591515 
L 123.50348 150.074141 
L 123.808453 152.725697 
L 124.113427 139.006985 
L 124.4184 115.165485 
L 124.723374 160.380613 
L 125.028348 170.94347 
L 125.333321 167.186052 
L 125.638295 166.982903 
L 125.943268 162.757757 
L 126.248242 150.780502 
L 126.553216 165.476047 
L 126.858189 164.628226 
L 127.163163 167.874882 
L 127.468136 167.474201 
L 128.078083 164.162542 
L 128.383057 167.156533 
L 128.688031 166.860778 
L 128.993004 170.780723 
L 129.297978 171.299938 
L 129.907925 163.591822 
L 130.212899 166.841977 
L 130.517872 165.203144 
L 130.822846 149.138483 
L 131.127819 149.255654 
L 131.432793 157.490314 
L 131.737766 154.388874 
L 132.04274 159.081969 
L 132.652687 152.303803 
L 132.957661 140.467235 
L 133.262634 160.343508 
L 133.567608 160.600832 
L 133.872582 153.347333 
L 134.177555 157.143422 
L 134.482529 146.198188 
L 134.787502 155.129578 
L 135.092476 151.339381 
L 135.397449 152.022245 
L 135.702423 151.006779 
L 136.007397 160.890437 
L 136.31237 162.817291 
L 136.617344 160.791164 
L 136.922317 162.780904 
L 137.227291 162.034344 
L 137.837238 158.035806 
L 138.142212 163.187956 
L 138.447185 177.592312 
L 138.752159 170.65103 
L 139.057132 184.524866 
L 139.362106 182.455391 
L 139.66708 181.239262 
L 139.972053 182.763539 
L 140.277027 183.402172 
L 140.582 183.626773 
L 140.886974 173.645095 
L 141.191948 185.233123 
L 141.496921 174.387272 
L 141.801895 128.938888 
L 142.106868 178.464993 
L 142.411842 157.634094 
L 142.716815 180.769859 
L 143.021789 178.008663 
L 143.631736 178.828863 
L 143.93671 178.370176 
L 144.241683 175.253158 
L 144.546657 179.80227 
L 144.851631 173.728366 
L 145.156604 174.325105 
L 145.461578 161.799743 
L 145.766551 185.89157 
L 146.071525 187.563383 
L 146.376498 190.520048 
L 146.681472 186.400435 
L 146.986446 188.42078 
L 147.291419 187.580638 
L 147.596393 185.042681 
L 147.901366 189.166861 
L 148.20634 145.813657 
L 148.511314 176.974396 
L 148.816287 180.538886 
L 149.121261 144.664999 
L 149.426234 166.230156 
L 149.731208 154.475993 
L 150.036181 173.783149 
L 150.341155 175.690354 
L 151.256076 171.265705 
L 151.561049 131.556672 
L 151.866023 163.118367 
L 152.170997 160.454142 
L 152.47597 145.770567 
L 152.780944 184.377089 
L 153.085917 176.791835 
L 153.390891 183.128754 
L 153.695864 173.315292 
L 154.000838 183.012227 
L 154.305812 171.906069 
L 154.610785 153.840436 
L 154.915759 187.000931 
L 155.220732 184.953131 
L 155.525706 186.994044 
L 155.83068 186.345689 
L 156.135653 184.46791 
L 156.440627 177.500387 
L 156.7456 189.223596 
L 157.050574 189.63341 
L 157.355547 187.022366 
L 157.660521 190.315611 
L 157.965495 185.889286 
L 158.575442 190.834991 
L 158.880415 176.857464 
L 159.185389 181.692921 
L 159.490363 182.58282 
L 159.795336 182.415598 
L 160.10031 158.145446 
L 160.405283 183.027161 
L 160.710257 101.939821 
L 161.01523 173.824765 
L 161.320204 176.859342 
L 161.625178 175.657024 
L 161.930151 161.923249 
L 162.235125 174.075791 
L 162.540098 177.487442 
L 162.845072 174.881885 
L 163.150046 167.641663 
L 163.455019 172.819151 
L 164.064966 178.756254 
L 164.36994 175.616383 
L 164.674913 181.257824 
L 164.979887 177.267959 
L 165.284861 171.712717 
L 165.589834 170.68123 
L 165.894808 167.769864 
L 166.199781 172.07016 
L 166.504755 162.291815 
L 166.809729 132.330706 
L 167.114702 152.72601 
L 167.419676 155.912635 
L 167.724649 152.582929 
L 168.029623 156.482692 
L 168.334596 151.030258 
L 168.63957 154.100245 
L 168.944544 167.462821 
L 169.249517 162.041452 
L 169.554491 165.092215 
L 169.859464 165.514662 
L 170.164438 161.670437 
L 170.469412 162.289053 
L 170.774385 162.046369 
L 171.079359 157.186954 
L 171.384332 147.57375 
L 171.689306 147.77305 
L 171.994279 132.031913 
L 172.299253 150.340341 
L 172.604227 153.354238 
L 172.9092 159.422434 
L 173.214174 159.094123 
L 173.519147 155.296174 
L 173.824121 136.282232 
L 174.129095 135.306522 
L 174.434068 155.450137 
L 174.739042 157.858548 
L 175.044015 154.600475 
L 175.348989 153.98777 
L 175.653962 140.268119 
L 175.958936 143.706157 
L 176.26391 151.487065 
L 176.873857 128.616764 
L 177.17883 153.82134 
L 177.483804 152.602688 
L 177.788778 155.011118 
L 178.093751 136.225589 
L 178.398725 153.03042 
L 178.703698 159.828805 
L 179.008672 158.55143 
L 179.313645 162.844323 
L 179.618619 159.177117 
L 179.923593 159.10252 
L 180.228566 158.899961 
L 180.53354 157.328451 
L 180.838513 156.912781 
L 181.143487 155.490538 
L 181.448461 165.460302 
L 181.753434 162.441341 
L 182.058408 168.565941 
L 182.363381 158.530511 
L 182.668355 160.268119 
L 182.973328 156.776348 
L 183.278302 158.190506 
L 183.583276 156.86389 
L 183.888249 153.142766 
L 184.193223 156.276855 
L 184.498196 153.233126 
L 184.80317 152.340503 
L 185.108144 137.131047 
L 185.413117 137.400672 
L 185.718091 156.78073 
L 186.023064 155.336814 
L 186.328038 145.619476 
L 186.633011 139.886792 
L 186.937985 158.539626 
L 187.242959 158.648216 
L 187.547932 162.022632 
L 188.157879 170.078211 
L 188.462853 158.410725 
L 189.0728 169.41656 
L 189.377774 171.400057 
L 189.682747 171.436776 
L 189.987721 164.139561 
L 190.292694 179.80785 
L 190.597668 178.189936 
L 190.902642 177.84065 
L 191.207615 176.293521 
L 191.512589 192.649591 
L 191.817562 167.657241 
L 192.122536 183.867911 
L 192.42751 188.169496 
L 192.732483 190.827018 
L 193.037457 188.641219 
L 193.34243 182.359047 
L 193.647404 189.477347 
L 193.952377 191.474931 
L 194.257351 191.822799 
L 194.562325 196.141381 
L 194.867298 215.192778 
L 195.172272 210.751556 
L 195.477245 214.813679 
L 195.782219 210.870495 
L 196.087193 197.742225 
L 196.392166 224.210771 
L 197.002113 206.869765 
L 197.61206 225.649089 
L 197.917034 224.54225 
L 198.222008 222.612744 
L 198.526981 204.547645 
L 198.831955 214.429129 
L 199.136928 210.585568 
L 199.441902 208.830281 
L 199.746876 197.112579 
L 200.051849 211.255634 
L 200.356823 211.427938 
L 200.96677 223.507706 
L 201.271743 216.082565 
L 201.576717 223.684043 
L 201.881691 227.024098 
L 202.186664 224.191012 
L 202.491638 176.666929 
L 202.796611 220.519865 
L 203.101585 214.976371 
L 203.406559 220.867622 
L 203.711532 220.174041 
L 204.016506 199.968038 
L 204.626453 214.053658 
L 204.931426 218.813358 
L 205.2364 218.268879 
L 205.541374 215.776351 
L 205.846347 190.371904 
L 206.151321 221.099534 
L 206.456294 222.299108 
L 206.761268 222.152879 
L 207.371215 219.404095 
L 207.676189 216.814375 
L 207.981162 220.339587 
L 208.286136 222.042982 
L 208.591109 220.079501 
L 208.896083 219.776565 
L 209.201057 218.748889 
L 209.50603 224.470838 
L 209.811004 226.569812 
L 210.115977 212.599946 
L 210.420951 233.546156 
L 210.725925 232.245302 
L 211.030898 233.09187 
L 211.335872 230.191406 
L 211.640845 217.931323 
L 211.945819 221.258359 
L 212.250792 220.782253 
L 212.555766 216.498346 
L 212.86074 219.350325 
L 213.165713 212.904981 
L 213.470687 223.842039 
L 213.77566 220.197041 
L 214.080634 223.993406 
L 214.385608 204.355563 
L 214.690581 224.413974 
L 214.995555 235.183405 
L 215.300528 226.536832 
L 215.605502 227.673429 
L 215.910475 238.571963 
L 216.215449 210.955864 
L 216.520423 212.487194 
L 216.825396 242.116364 
L 217.13037 230.005401 
L 217.740317 228.681861 
L 218.045291 228.639747 
L 218.350264 225.306506 
L 218.655238 227.334584 
L 218.960211 172.044969 
L 219.265185 208.422566 
L 219.570158 226.584949 
L 219.875132 221.870438 
L 220.180106 226.118289 
L 220.485079 221.957336 
L 220.790053 222.371035 
L 221.095026 213.985046 
L 221.4 226.862824 
L 221.704974 227.94705 
L 222.619894 220.573267 
L 222.924868 224.724829 
L 223.229842 221.49725 
L 223.534815 226.66345 
L 223.839789 224.856032 
L 224.144762 144.382263 
L 224.449736 215.853102 
L 224.754709 215.762282 
L 225.059683 216.102398 
L 225.364657 218.104199 
L 225.66963 215.811762 
L 225.974604 215.476968 
L 226.279577 215.562761 
L 226.584551 196.164564 
L 226.889525 224.033218 
L 227.194498 209.676426 
L 227.499472 222.038507 
L 227.804445 221.864932 
L 228.109419 207.848955 
L 228.414392 211.992157 
L 228.719366 204.704886 
L 229.02434 206.140515 
L 229.329313 198.792255 
L 229.634287 147.557987 
L 229.93926 184.683709 
L 230.244234 181.927596 
L 230.549208 184.567016 
L 230.854181 184.076086 
L 231.159155 187.07319 
L 231.464128 187.361395 
L 231.769102 187.057537 
L 232.074075 176.843543 
L 232.379049 174.821983 
L 232.684023 177.730642 
L 232.988996 183.391712 
L 233.29397 181.082279 
L 233.598943 182.316841 
L 233.903917 181.385786 
L 234.208891 181.625377 
L 234.513864 176.202756 
L 234.818838 181.345551 
L 235.123811 181.51292 
L 235.428785 184.181049 
L 235.733758 183.117631 
L 236.038732 183.279531 
L 236.648679 186.0796 
L 236.953653 184.781655 
L 237.258626 171.55542 
L 237.5636 171.55612 
L 237.868574 192.263329 
L 238.173547 180.669666 
L 238.478521 187.484735 
L 238.783494 156.575869 
L 239.088468 200.028824 
L 239.393441 204.044303 
L 240.003389 206.291054 
L 240.613336 204.791636 
L 240.918309 182.73054 
L 241.223283 193.825208 
L 241.528257 194.901166 
L 241.83323 197.297386 
L 242.138204 187.229768 
L 242.443177 188.724324 
L 242.748151 188.85271 
L 243.053124 178.122778 
L 243.358098 204.258261 
L 243.663072 203.765619 
L 243.968045 198.654054 
L 244.273019 206.274591 
L 244.577992 208.20638 
L 244.882966 208.97826 
L 245.18794 203.822483 
L 245.492913 157.609363 
L 245.797887 201.392471 
L 246.10286 196.638756 
L 246.407834 194.737442 
L 246.712807 200.697417 
L 247.017781 178.34714 
L 247.322755 199.428291 
L 247.627728 170.727413 
L 247.932702 182.157058 
L 248.237675 178.594041 
L 248.542649 178.426488 
L 248.847623 179.665874 
L 249.152596 180.311615 
L 249.45757 177.572756 
L 250.067517 179.354578 
L 250.37249 174.406552 
L 250.677464 185.699101 
L 250.982438 184.940996 
L 251.287411 173.486307 
L 251.592385 173.077672 
L 251.897358 182.020718 
L 252.202332 177.826342 
L 252.507306 180.581645 
L 252.812279 178.636505 
L 253.117253 188.529462 
L 253.422226 175.827248 
L 253.7272 174.425464 
L 254.032173 179.054219 
L 254.337147 177.705856 
L 254.642121 177.286245 
L 254.947094 172.7993 
L 255.252068 181.089645 
L 255.557041 177.191484 
L 256.166989 102.027566 
L 256.471962 176.768172 
L 256.776936 177.43218 
L 257.081909 171.522753 
L 257.386883 174.453509 
L 257.691856 173.918882 
L 257.99683 175.45255 
L 258.301804 175.40005 
L 258.606777 160.137542 
L 258.911751 168.820373 
L 259.216724 173.223588 
L 259.521698 159.370248 
L 259.826672 171.740081 
L 260.131645 167.790691 
L 260.436619 168.525668 
L 260.741592 170.285853 
L 261.046566 166.841738 
L 261.351539 159.633833 
L 261.656513 176.104183 
L 262.26646 169.002677 
L 262.571434 169.98461 
L 262.876407 161.375492 
L 263.181381 172.866273 
L 263.486355 171.121318 
L 264.401275 169.80227 
L 264.706249 168.520144 
L 265.011222 167.731894 
L 265.316196 172.097451 
L 265.62117 171.801622 
L 265.926143 172.742528 
L 266.231117 177.50256 
L 266.53609 187.174248 
L 266.841064 180.652798 
L 267.451011 162.876327 
L 267.755985 163.002338 
L 268.060958 174.157165 
L 268.365932 175.863653 
L 268.670905 175.507443 
L 268.975879 175.334752 
L 269.280853 176.575501 
L 269.585826 178.536846 
L 269.8908 164.793495 
L 270.195773 165.129707 
L 270.500747 178.715595 
L 270.805721 164.421394 
L 271.110694 179.578461 
L 271.415668 177.891879 
L 271.720641 180.696919 
L 272.025615 180.580503 
L 272.330588 184.516616 
L 272.635562 180.077051 
L 272.940536 177.49582 
L 273.245509 177.825955 
L 273.550483 177.456947 
L 273.855456 181.095685 
L 274.465404 180.923657 
L 274.770377 181.865797 
L 275.075351 190.564648 
L 275.380324 178.875046 
L 275.685298 154.779003 
L 275.990271 187.806565 
L 276.295245 184.886802 
L 276.600219 195.015354 
L 276.905192 192.74623 
L 277.210166 197.555428 
L 277.515139 193.031286 
L 277.820113 193.926266 
L 278.125087 140.356748 
L 278.735034 171.402157 
L 279.040007 177.377875 
L 279.344981 141.262777 
L 279.649954 156.059656 
L 279.954928 147.978574 
L 280.259902 159.085947 
L 280.564875 160.136861 
L 280.869849 152.142676 
L 281.174822 153.690579 
L 281.479796 154.389426 
L 281.78477 153.910263 
L 282.089743 148.281087 
L 282.69969 150.881082 
L 283.004664 156.629492 
L 283.309637 148.114564 
L 283.614611 158.426561 
L 283.919585 161.196964 
L 284.224558 150.708575 
L 284.529532 160.963468 
L 284.834505 164.38718 
L 285.139479 157.303241 
L 285.444453 166.337862 
L 285.749426 164.744642 
L 286.0544 150.21492 
L 286.359373 169.219728 
L 286.664347 111.933082 
L 286.96932 144.758526 
L 287.274294 139.627203 
L 287.884241 138.755535 
L 288.189215 143.689952 
L 288.494188 139.431531 
L 288.799162 117.284955 
L 289.104136 139.075524 
L 289.409109 117.191888 
L 289.714083 140.265596 
L 290.019056 140.139015 
L 290.32403 89.971019 
L 290.629003 133.797806 
L 290.933977 137.786934 
L 291.238951 147.360786 
L 291.543924 152.589006 
L 291.848898 148.438935 
L 292.153871 113.915713 
L 292.458845 150.919881 
L 292.763819 139.356473 
L 293.068792 146.276229 
L 293.373766 147.975277 
L 293.678739 147.127917 
L 293.983713 149.229377 
L 294.288686 155.100759 
L 294.59366 154.110834 
L 294.898634 151.111226 
L 295.203607 157.051092 
L 295.508581 144.981396 
L 295.813554 149.953103 
L 296.118528 119.241843 
L 296.423502 157.211703 
L 296.728475 142.383979 
L 297.033449 156.81128 
L 297.338422 157.196345 
L 297.643396 104.089196 
L 297.948369 165.476875 
L 298.86329 153.377312 
L 299.168264 138.751724 
L 299.473237 136.394081 
L 299.778211 149.932644 
L 300.083185 150.840496 
L 300.388158 152.20035 
L 300.693132 151.206097 
L 300.998105 152.974237 
L 301.303079 153.620622 
L 301.608052 153.304832 
L 301.913026 151.334281 
L 302.218 151.988786 
L 302.522973 124.850101 
L 302.827947 150.28147 
L 303.13292 145.946628 
L 303.437894 147.678381 
L 303.742868 152.763373 
L 304.047841 165.068 
L 304.352815 163.35271 
L 304.657788 166.214633 
L 305.267735 143.397494 
L 305.572709 152.047602 
L 305.877683 152.958787 
L 306.182656 155.749115 
L 306.48763 156.637061 
L 306.792603 150.89342 
L 307.097577 148.306977 
L 307.402551 153.099916 
L 307.707524 147.80185 
L 308.317471 154.298459 
L 308.622445 152.27631 
L 309.232392 151.677913 
L 309.537366 150.781533 
L 309.842339 148.094272 
L 310.147313 130.910103 
L 310.452286 151.639574 
L 310.75726 151.67237 
L 311.062234 150.00505 
L 311.367207 142.7691 
L 311.672181 139.558278 
L 311.977154 140.796927 
L 312.282128 128.464494 
L 312.587101 150.502093 
L 312.892075 152.272995 
L 313.197049 148.34121 
L 313.502022 147.838089 
L 313.806996 127.864459 
L 314.416943 142.701942 
L 314.721917 134.508568 
L 315.02689 114.248518 
L 315.331864 113.638023 
L 315.636837 140.595123 
L 315.941811 137.463299 
L 316.246784 139.033134 
L 316.551758 120.345772 
L 316.856732 119.157597 
L 317.161705 146.917642 
L 317.771652 147.395516 
L 318.076626 131.489569 
L 318.3816 143.12507 
L 318.686573 144.714644 
L 318.991547 144.42237 
L 319.29652 140.511172 
L 319.601494 146.91035 
L 319.906467 141.938938 
L 320.211441 142.582045 
L 320.516415 121.134428 
L 320.821388 146.221796 
L 321.126362 144.002096 
L 321.431335 143.454947 
L 321.736309 139.406285 
L 322.041283 140.223151 
L 322.346256 122.860251 
L 322.65123 147.65958 
L 322.956203 138.608533 
L 323.261177 133.483931 
L 323.56615 130.870346 
L 323.871124 131.713176 
L 324.176098 133.609149 
L 324.481071 134.796717 
L 324.786045 130.474066 
L 325.091018 105.335101 
L 325.395992 110.648506 
L 325.700966 112.453327 
L 326.005939 120.514062 
L 326.310913 120.022727 
L 326.615886 113.445113 
L 326.92086 121.269663 
L 327.225833 117.72309 
L 327.530807 121.318904 
L 327.835781 115.075973 
L 328.140754 115.488825 
L 328.445728 116.764009 
L 329.055675 109.919367 
L 329.360649 95.858477 
L 329.665622 112.839037 
L 330.275569 109.483772 
L 330.580543 109.138666 
L 330.885516 84.370237 
L 331.19049 92.924793 
L 331.495464 89.180135 
L 332.105411 123.639607 
L 332.410384 119.26685 
L 332.715358 116.79826 
L 333.020332 127.904639 
L 333.325305 131.414365 
L 333.935252 128.797097 
L 334.240226 129.296884 
L 334.545199 128.992806 
L 334.850173 128.087421 
L 335.155147 128.743105 
L 335.765094 121.58247 
L 336.070067 108.790412 
L 336.375041 115.425977 
L 336.680015 114.360183 
L 336.984988 117.869486 
L 337.289962 105.581229 
L 337.594935 125.660945 
L 337.899909 124.336171 
L 338.204882 124.244964 
L 338.509856 125.149612 
L 338.81483 125.508823 
L 339.119803 124.350792 
L 339.424777 120.49922 
L 339.72975 127.83262 
L 340.034724 125.954914 
L 340.644671 115.657097 
L 340.949645 121.61488 
L 341.254618 119.722847 
L 342.169539 75.558486 
L 342.474513 113.507759 
L 342.779486 113.142121 
L 343.08446 94.420803 
L 343.389433 112.74772 
L 343.694407 111.431398 
L 343.999381 110.784865 
L 344.304354 108.777706 
L 344.609328 104.442956 
L 344.914301 116.7978 
L 345.219275 121.697008 
L 345.829222 124.948047 
L 346.134196 121.318038 
L 346.439169 92.45051 
L 346.744143 120.638268 
L 347.049116 102.976925 
L 347.35409 122.654782 
L 347.659064 111.972176 
L 347.964037 112.677597 
L 348.269011 94.065588 
L 348.573984 119.916826 
L 348.878958 118.760673 
L 349.183931 118.199712 
L 349.488905 89.729918 
L 349.793879 120.112295 
L 350.098852 96.850391 
L 350.403826 113.455554 
L 350.708799 92.24285 
L 351.013773 100.70548 
L 351.318747 113.581693 
L 351.62372 112.979834 
L 351.928694 115.283301 
L 352.233667 113.760498 
L 352.538641 113.686379 
L 352.843615 114.810841 
L 353.148588 110.766156 
L 353.453562 84.978854 
L 353.758535 117.414003 
L 354.063509 111.292258 
L 354.368482 101.39142 
L 354.673456 107.011187 
L 354.97843 99.926474 
L 355.283403 85.548837 
L 355.588377 107.787246 
L 355.89335 114.994212 
L 356.198324 99.092372 
L 356.503298 115.981578 
L 357.113245 121.878299 
L 357.418218 113.855277 
L 357.723192 118.416764 
L 358.333139 123.083305 
L 358.638113 119.993485 
L 358.943086 124.043344 
L 359.24806 122.344296 
L 359.553033 122.21068 
L 359.858007 126.626011 
L 360.162981 120.42989 
L 360.467954 123.558528 
L 360.772928 112.927795 
L 361.077901 54.436437 
L 361.382875 113.614102 
L 361.992822 119.26359 
L 362.297796 118.426468 
L 362.602769 105.297867 
L 362.907743 104.561011 
L 363.212716 99.888301 
L 363.51769 104.234191 
L 363.822664 102.838963 
L 364.127637 44.443636 
L 364.432611 108.17535 
L 364.737584 107.450556 
L 365.042558 60.795213 
L 365.347531 106.721895 
L 365.652505 108.852413 
L 365.957479 114.612535 
L 366.262452 109.973247 
L 366.567426 46.954193 
L 366.872399 101.085132 
L 367.177373 107.362369 
L 367.482347 108.48149 
L 367.78732 70.323287 
L 368.092294 96.583105 
L 368.397267 85.718306 
L 368.702241 95.994192 
L 369.007214 93.904148 
L 369.312188 99.666333 
L 369.617162 96.271845 
L 370.227109 78.145591 
L 370.532082 91.14008 
L 370.837056 90.184921 
L 371.14203 62.039093 
L 371.447003 82.376115 
L 371.751977 80.10364 
L 372.05695 88.977613 
L 372.361924 87.441496 
L 372.666897 87.680184 
L 372.971871 85.135837 
L 373.276845 87.311434 
L 373.581818 86.728027 
L 373.581818 86.728027 
" style="fill:none;stroke:#1f77b4;stroke-linecap:round;stroke-width:1.5;"/>
   </g>
   <g id="patch_3">
    <path d="M 54 252 
L 54 34.56 
" style="fill:none;"/>
   </g>
   <g id="patch_4">
    <path d="M 388.8 252 
L 388.8 34.56 
" style="fill:none;"/>
   </g>
   <g id="patch_5">
    <path d="M 54 252 
L 388.8 252 
" style="fill:none;"/>
   </g>
   <g id="patch_6">
    <path d="M 54 34.56 
L 388.8 34.56 
" style="fill:none;"/>
   </g>
   <g id="text_15">
    <!-- Delays pattern with respect to worker0 -->
    <defs>
     <path d="M 54.890625 33.015625 
L 54.890625 0 
L 45.90625 0 
L 45.90625 32.71875 
Q 45.90625 40.484375 42.875 44.328125 
Q 39.84375 48.1875 33.796875 48.1875 
Q 26.515625 48.1875 22.3125 43.546875 
Q 18.109375 38.921875 18.109375 30.90625 
L 18.109375 0 
L 9.078125 0 
L 9.078125 54.6875 
L 18.109375 54.6875 
L 18.109375 46.1875 
Q 21.34375 51.125 25.703125 53.5625 
Q 30.078125 56 35.796875 56 
Q 45.21875 56 50.046875 50.171875 
Q 54.890625 44.34375 54.890625 33.015625 
z
" id="DejaVuSans-6e"/>
     <path d="M 54.890625 33.015625 
L 54.890625 0 
L 45.90625 0 
L 45.90625 32.71875 
Q 45.90625 40.484375 42.875 44.328125 
Q 39.84375 48.1875 33.796875 48.1875 
Q 26.515625 48.1875 22.3125 43.546875 
Q 18.109375 38.921875 18.109375 30.90625 
L 18.109375 0 
L 9.078125 0 
L 9.078125 75.984375 
L 18.109375 75.984375 
L 18.109375 46.1875 
Q 21.34375 51.125 25.703125 53.5625 
Q 30.078125 56 35.796875 56 
Q 45.21875 56 50.046875 50.171875 
Q 54.890625 44.34375 54.890625 33.015625 
z
" id="DejaVuSans-68"/>
    </defs>
    <g style="fill:#262626;" transform="translate(103.704375 28.56)scale(0.12 -0.12)">
     <use xlink:href="#DejaVuSans-44"/>
     <use x="77.001953" xlink:href="#DejaVuSans-65"/>
     <use x="138.525391" xlink:href="#DejaVuSans-6c"/>
     <use x="166.308594" xlink:href="#DejaVuSans-61"/>
     <use x="227.587891" xlink:href="#DejaVuSans-79"/>
     <use x="286.767578" xlink:href="#DejaVuSans-73"/>
     <use x="338.867188" xlink:href="#DejaVuSans-20"/>
     <use x="370.654297" xlink:href="#DejaVuSans-70"/>
     <use x="434.130859" xlink:href="#DejaVuSans-61"/>
     <use x="495.410156" xlink:href="#DejaVuSans-74"/>
     <use x="534.619141" xlink:href="#DejaVuSans-74"/>
     <use x="573.828125" xlink:href="#DejaVuSans-65"/>
     <use x="635.351562" xlink:href="#DejaVuSans-72"/>
     <use x="676.449219" xlink:href="#DejaVuSans-6e"/>
     <use x="739.828125" xlink:href="#DejaVuSans-20"/>
     <use x="771.615234" xlink:href="#DejaVuSans-77"/>
     <use x="853.402344" xlink:href="#DejaVuSans-69"/>
     <use x="881.185547" xlink:href="#DejaVuSans-74"/>
     <use x="920.394531" xlink:href="#DejaVuSans-68"/>
     <use x="983.773438" xlink:href="#DejaVuSans-20"/>
     <use x="1015.560547" xlink:href="#DejaVuSans-72"/>
     <use x="1056.642578" xlink:href="#DejaVuSans-65"/>
     <use x="1118.166016" xlink:href="#DejaVuSans-73"/>
     <use x="1170.265625" xlink:href="#DejaVuSans-70"/>
     <use x="1233.742188" xlink:href="#DejaVuSans-65"/>
     <use x="1295.265625" xlink:href="#DejaVuSans-63"/>
     <use x="1350.246094" xlink:href="#DejaVuSans-74"/>
     <use x="1389.455078" xlink:href="#DejaVuSans-20"/>
     <use x="1421.242188" xlink:href="#DejaVuSans-74"/>
     <use x="1460.451172" xlink:href="#DejaVuSans-6f"/>
     <use x="1521.632812" xlink:href="#DejaVuSans-20"/>
     <use x="1553.419922" xlink:href="#DejaVuSans-77"/>
     <use x="1635.207031" xlink:href="#DejaVuSans-6f"/>
     <use x="1696.388672" xlink:href="#DejaVuSans-72"/>
     <use x="1737.501953" xlink:href="#DejaVuSans-6b"/>
     <use x="1795.365234" xlink:href="#DejaVuSans-65"/>
     <use x="1856.888672" xlink:href="#DejaVuSans-72"/>
     <use x="1898.001953" xlink:href="#DejaVuSans-30"/>
    </g>
   </g>
   <g id="legend_1">
    <g id="line2d_26">
     <path d="M 63 47.658437 
L 83 47.658437 
" style="fill:none;stroke:#1f77b4;stroke-linecap:round;stroke-width:1.5;"/>
    </g>
    <g id="line2d_27"/>
    <g id="text_16">
     <!-- Worker1 -->
     <defs>
      <path d="M 3.328125 72.90625 
L 13.28125 72.90625 
L 28.609375 11.28125 
L 43.890625 72.90625 
L 54.984375 72.90625 
L 70.3125 11.28125 
L 85.59375 72.90625 
L 95.609375 72.90625 
L 77.296875 0 
L 64.890625 0 
L 49.515625 63.28125 
L 33.984375 0 
L 21.578125 0 
z
" id="DejaVuSans-57"/>
     </defs>
     <g style="fill:#262626;" transform="translate(91 51.158437)scale(0.1 -0.1)">
      <use xlink:href="#DejaVuSans-57"/>
      <use x="98.798828" xlink:href="#DejaVuSans-6f"/>
      <use x="159.980469" xlink:href="#DejaVuSans-72"/>
      <use x="201.09375" xlink:href="#DejaVuSans-6b"/>
      <use x="258.957031" xlink:href="#DejaVuSans-65"/>
      <use x="320.480469" xlink:href="#DejaVuSans-72"/>
      <use x="361.59375" xlink:href="#DejaVuSans-31"/>
     </g>
    </g>
   </g>
  </g>
 </g>
 <defs>
  <clipPath id="pa1e5b7db02">
   <rect height="217.44" width="334.8" x="54" y="34.56"/>
  </clipPath>
 </defs>
</svg>
