<?xml version="1.0" encoding="utf-8" standalone="no"?>
<!DOCTYPE svg PUBLIC "-//W3C//DTD SVG 1.1//EN"
  "http://www.w3.org/Graphics/SVG/1.1/DTD/svg11.dtd">
<!-- Created with matplotlib (http://matplotlib.org/) -->
<svg height="288pt" version="1.1" viewBox="0 0 432 288" width="432pt" xmlns="http://www.w3.org/2000/svg" xmlns:xlink="http://www.w3.org/1999/xlink">
 <defs>
  <style type="text/css">
*{stroke-linecap:butt;stroke-linejoin:round;}
  </style>
 </defs>
 <g id="figure_1">
  <g id="patch_1">
   <path d="M 0 288 
L 432 288 
L 432 0 
L 0 0 
z
" style="fill:#ffffff;"/>
  </g>
  <g id="axes_1">
   <g id="patch_2">
    <path d="M 54 252 
L 388.8 252 
L 388.8 34.56 
L 54 34.56 
z
" style="fill:#eaeaf2;"/>
   </g>
   <g id="matplotlib.axis_1">
    <g id="xtick_1">
     <g id="line2d_1">
      <path clip-path="url(#p12722d00d9)" d="M 69.218182 252 
L 69.218182 34.56 
" style="fill:none;stroke:#ffffff;stroke-linecap:round;stroke-width:0.8;"/>
     </g>
     <g id="line2d_2"/>
     <g id="text_1">
      <!-- 0 -->
      <defs>
       <path d="M 31.78125 66.40625 
Q 24.171875 66.40625 20.328125 58.90625 
Q 16.5 51.421875 16.5 36.375 
Q 16.5 21.390625 20.328125 13.890625 
Q 24.171875 6.390625 31.78125 6.390625 
Q 39.453125 6.390625 43.28125 13.890625 
Q 47.125 21.390625 47.125 36.375 
Q 47.125 51.421875 43.28125 58.90625 
Q 39.453125 66.40625 31.78125 66.40625 
z
M 31.78125 74.21875 
Q 44.046875 74.21875 50.515625 64.515625 
Q 56.984375 54.828125 56.984375 36.375 
Q 56.984375 17.96875 50.515625 8.265625 
Q 44.046875 -1.421875 31.78125 -1.421875 
Q 19.53125 -1.421875 13.0625 8.265625 
Q 6.59375 17.96875 6.59375 36.375 
Q 6.59375 54.828125 13.0625 64.515625 
Q 19.53125 74.21875 31.78125 74.21875 
z
" id="DejaVuSans-30"/>
      </defs>
      <g style="fill:#262626;" transform="translate(66.036932 263.098437)scale(0.1 -0.1)">
       <use xlink:href="#DejaVuSans-30"/>
      </g>
     </g>
    </g>
    <g id="xtick_2">
     <g id="line2d_3">
      <path clip-path="url(#p12722d00d9)" d="M 130.151843 252 
L 130.151843 34.56 
" style="fill:none;stroke:#ffffff;stroke-linecap:round;stroke-width:0.8;"/>
     </g>
     <g id="line2d_4"/>
     <g id="text_2">
      <!-- 200 -->
      <defs>
       <path d="M 19.1875 8.296875 
L 53.609375 8.296875 
L 53.609375 0 
L 7.328125 0 
L 7.328125 8.296875 
Q 12.9375 14.109375 22.625 23.890625 
Q 32.328125 33.6875 34.8125 36.53125 
Q 39.546875 41.84375 41.421875 45.53125 
Q 43.3125 49.21875 43.3125 52.78125 
Q 43.3125 58.59375 39.234375 62.25 
Q 35.15625 65.921875 28.609375 65.921875 
Q 23.96875 65.921875 18.8125 64.3125 
Q 13.671875 62.703125 7.8125 59.421875 
L 7.8125 69.390625 
Q 13.765625 71.78125 18.9375 73 
Q 24.125 74.21875 28.421875 74.21875 
Q 39.75 74.21875 46.484375 68.546875 
Q 53.21875 62.890625 53.21875 53.421875 
Q 53.21875 48.921875 51.53125 44.890625 
Q 49.859375 40.875 45.40625 35.40625 
Q 44.1875 33.984375 37.640625 27.21875 
Q 31.109375 20.453125 19.1875 8.296875 
z
" id="DejaVuSans-32"/>
      </defs>
      <g style="fill:#262626;" transform="translate(120.608093 263.098437)scale(0.1 -0.1)">
       <use xlink:href="#DejaVuSans-32"/>
       <use x="63.623047" xlink:href="#DejaVuSans-30"/>
       <use x="127.246094" xlink:href="#DejaVuSans-30"/>
      </g>
     </g>
    </g>
    <g id="xtick_3">
     <g id="line2d_5">
      <path clip-path="url(#p12722d00d9)" d="M 191.085504 252 
L 191.085504 34.56 
" style="fill:none;stroke:#ffffff;stroke-linecap:round;stroke-width:0.8;"/>
     </g>
     <g id="line2d_6"/>
     <g id="text_3">
      <!-- 400 -->
      <defs>
       <path d="M 37.796875 64.3125 
L 12.890625 25.390625 
L 37.796875 25.390625 
z
M 35.203125 72.90625 
L 47.609375 72.90625 
L 47.609375 25.390625 
L 58.015625 25.390625 
L 58.015625 17.1875 
L 47.609375 17.1875 
L 47.609375 0 
L 37.796875 0 
L 37.796875 17.1875 
L 4.890625 17.1875 
L 4.890625 26.703125 
z
" id="DejaVuSans-34"/>
      </defs>
      <g style="fill:#262626;" transform="translate(181.541754 263.098437)scale(0.1 -0.1)">
       <use xlink:href="#DejaVuSans-34"/>
       <use x="63.623047" xlink:href="#DejaVuSans-30"/>
       <use x="127.246094" xlink:href="#DejaVuSans-30"/>
      </g>
     </g>
    </g>
    <g id="xtick_4">
     <g id="line2d_7">
      <path clip-path="url(#p12722d00d9)" d="M 252.019165 252 
L 252.019165 34.56 
" style="fill:none;stroke:#ffffff;stroke-linecap:round;stroke-width:0.8;"/>
     </g>
     <g id="line2d_8"/>
     <g id="text_4">
      <!-- 600 -->
      <defs>
       <path d="M 33.015625 40.375 
Q 26.375 40.375 22.484375 35.828125 
Q 18.609375 31.296875 18.609375 23.390625 
Q 18.609375 15.53125 22.484375 10.953125 
Q 26.375 6.390625 33.015625 6.390625 
Q 39.65625 6.390625 43.53125 10.953125 
Q 47.40625 15.53125 47.40625 23.390625 
Q 47.40625 31.296875 43.53125 35.828125 
Q 39.65625 40.375 33.015625 40.375 
z
M 52.59375 71.296875 
L 52.59375 62.3125 
Q 48.875 64.0625 45.09375 64.984375 
Q 41.3125 65.921875 37.59375 65.921875 
Q 27.828125 65.921875 22.671875 59.328125 
Q 17.53125 52.734375 16.796875 39.40625 
Q 19.671875 43.65625 24.015625 45.921875 
Q 28.375 48.1875 33.59375 48.1875 
Q 44.578125 48.1875 50.953125 41.515625 
Q 57.328125 34.859375 57.328125 23.390625 
Q 57.328125 12.15625 50.6875 5.359375 
Q 44.046875 -1.421875 33.015625 -1.421875 
Q 20.359375 -1.421875 13.671875 8.265625 
Q 6.984375 17.96875 6.984375 36.375 
Q 6.984375 53.65625 15.1875 63.9375 
Q 23.390625 74.21875 37.203125 74.21875 
Q 40.921875 74.21875 44.703125 73.484375 
Q 48.484375 72.75 52.59375 71.296875 
z
" id="DejaVuSans-36"/>
      </defs>
      <g style="fill:#262626;" transform="translate(242.475415 263.098437)scale(0.1 -0.1)">
       <use xlink:href="#DejaVuSans-36"/>
       <use x="63.623047" xlink:href="#DejaVuSans-30"/>
       <use x="127.246094" xlink:href="#DejaVuSans-30"/>
      </g>
     </g>
    </g>
    <g id="xtick_5">
     <g id="line2d_9">
      <path clip-path="url(#p12722d00d9)" d="M 312.952826 252 
L 312.952826 34.56 
" style="fill:none;stroke:#ffffff;stroke-linecap:round;stroke-width:0.8;"/>
     </g>
     <g id="line2d_10"/>
     <g id="text_5">
      <!-- 800 -->
      <defs>
       <path d="M 31.78125 34.625 
Q 24.75 34.625 20.71875 30.859375 
Q 16.703125 27.09375 16.703125 20.515625 
Q 16.703125 13.921875 20.71875 10.15625 
Q 24.75 6.390625 31.78125 6.390625 
Q 38.8125 6.390625 42.859375 10.171875 
Q 46.921875 13.96875 46.921875 20.515625 
Q 46.921875 27.09375 42.890625 30.859375 
Q 38.875 34.625 31.78125 34.625 
z
M 21.921875 38.8125 
Q 15.578125 40.375 12.03125 44.71875 
Q 8.5 49.078125 8.5 55.328125 
Q 8.5 64.0625 14.71875 69.140625 
Q 20.953125 74.21875 31.78125 74.21875 
Q 42.671875 74.21875 48.875 69.140625 
Q 55.078125 64.0625 55.078125 55.328125 
Q 55.078125 49.078125 51.53125 44.71875 
Q 48 40.375 41.703125 38.8125 
Q 48.828125 37.15625 52.796875 32.3125 
Q 56.78125 27.484375 56.78125 20.515625 
Q 56.78125 9.90625 50.3125 4.234375 
Q 43.84375 -1.421875 31.78125 -1.421875 
Q 19.734375 -1.421875 13.25 4.234375 
Q 6.78125 9.90625 6.78125 20.515625 
Q 6.78125 27.484375 10.78125 32.3125 
Q 14.796875 37.15625 21.921875 38.8125 
z
M 18.3125 54.390625 
Q 18.3125 48.734375 21.84375 45.5625 
Q 25.390625 42.390625 31.78125 42.390625 
Q 38.140625 42.390625 41.71875 45.5625 
Q 45.3125 48.734375 45.3125 54.390625 
Q 45.3125 60.0625 41.71875 63.234375 
Q 38.140625 66.40625 31.78125 66.40625 
Q 25.390625 66.40625 21.84375 63.234375 
Q 18.3125 60.0625 18.3125 54.390625 
z
" id="DejaVuSans-38"/>
      </defs>
      <g style="fill:#262626;" transform="translate(303.409076 263.098437)scale(0.1 -0.1)">
       <use xlink:href="#DejaVuSans-38"/>
       <use x="63.623047" xlink:href="#DejaVuSans-30"/>
       <use x="127.246094" xlink:href="#DejaVuSans-30"/>
      </g>
     </g>
    </g>
    <g id="xtick_6">
     <g id="line2d_11">
      <path clip-path="url(#p12722d00d9)" d="M 373.886486 252 
L 373.886486 34.56 
" style="fill:none;stroke:#ffffff;stroke-linecap:round;stroke-width:0.8;"/>
     </g>
     <g id="line2d_12"/>
     <g id="text_6">
      <!-- 1000 -->
      <defs>
       <path d="M 12.40625 8.296875 
L 28.515625 8.296875 
L 28.515625 63.921875 
L 10.984375 60.40625 
L 10.984375 69.390625 
L 28.421875 72.90625 
L 38.28125 72.90625 
L 38.28125 8.296875 
L 54.390625 8.296875 
L 54.390625 0 
L 12.40625 0 
z
" id="DejaVuSans-31"/>
      </defs>
      <g style="fill:#262626;" transform="translate(361.161486 263.098437)scale(0.1 -0.1)">
       <use xlink:href="#DejaVuSans-31"/>
       <use x="63.623047" xlink:href="#DejaVuSans-30"/>
       <use x="127.246094" xlink:href="#DejaVuSans-30"/>
       <use x="190.869141" xlink:href="#DejaVuSans-30"/>
      </g>
     </g>
    </g>
    <g id="text_7">
     <!-- Global steps -->
     <defs>
      <path d="M 59.515625 10.40625 
L 59.515625 29.984375 
L 43.40625 29.984375 
L 43.40625 38.09375 
L 69.28125 38.09375 
L 69.28125 6.78125 
Q 63.578125 2.734375 56.6875 0.65625 
Q 49.8125 -1.421875 42 -1.421875 
Q 24.90625 -1.421875 15.25 8.5625 
Q 5.609375 18.5625 5.609375 36.375 
Q 5.609375 54.25 15.25 64.234375 
Q 24.90625 74.21875 42 74.21875 
Q 49.125 74.21875 55.546875 72.453125 
Q 61.96875 70.703125 67.390625 67.28125 
L 67.390625 56.78125 
Q 61.921875 61.421875 55.765625 63.765625 
Q 49.609375 66.109375 42.828125 66.109375 
Q 29.4375 66.109375 22.71875 58.640625 
Q 16.015625 51.171875 16.015625 36.375 
Q 16.015625 21.625 22.71875 14.15625 
Q 29.4375 6.6875 42.828125 6.6875 
Q 48.046875 6.6875 52.140625 7.59375 
Q 56.25 8.5 59.515625 10.40625 
z
" id="DejaVuSans-47"/>
      <path d="M 9.421875 75.984375 
L 18.40625 75.984375 
L 18.40625 0 
L 9.421875 0 
z
" id="DejaVuSans-6c"/>
      <path d="M 30.609375 48.390625 
Q 23.390625 48.390625 19.1875 42.75 
Q 14.984375 37.109375 14.984375 27.296875 
Q 14.984375 17.484375 19.15625 11.84375 
Q 23.34375 6.203125 30.609375 6.203125 
Q 37.796875 6.203125 41.984375 11.859375 
Q 46.1875 17.53125 46.1875 27.296875 
Q 46.1875 37.015625 41.984375 42.703125 
Q 37.796875 48.390625 30.609375 48.390625 
z
M 30.609375 56 
Q 42.328125 56 49.015625 48.375 
Q 55.71875 40.765625 55.71875 27.296875 
Q 55.71875 13.875 49.015625 6.21875 
Q 42.328125 -1.421875 30.609375 -1.421875 
Q 18.84375 -1.421875 12.171875 6.21875 
Q 5.515625 13.875 5.515625 27.296875 
Q 5.515625 40.765625 12.171875 48.375 
Q 18.84375 56 30.609375 56 
z
" id="DejaVuSans-6f"/>
      <path d="M 48.6875 27.296875 
Q 48.6875 37.203125 44.609375 42.84375 
Q 40.53125 48.484375 33.40625 48.484375 
Q 26.265625 48.484375 22.1875 42.84375 
Q 18.109375 37.203125 18.109375 27.296875 
Q 18.109375 17.390625 22.1875 11.75 
Q 26.265625 6.109375 33.40625 6.109375 
Q 40.53125 6.109375 44.609375 11.75 
Q 48.6875 17.390625 48.6875 27.296875 
z
M 18.109375 46.390625 
Q 20.953125 51.265625 25.265625 53.625 
Q 29.59375 56 35.59375 56 
Q 45.5625 56 51.78125 48.09375 
Q 58.015625 40.1875 58.015625 27.296875 
Q 58.015625 14.40625 51.78125 6.484375 
Q 45.5625 -1.421875 35.59375 -1.421875 
Q 29.59375 -1.421875 25.265625 0.953125 
Q 20.953125 3.328125 18.109375 8.203125 
L 18.109375 0 
L 9.078125 0 
L 9.078125 75.984375 
L 18.109375 75.984375 
z
" id="DejaVuSans-62"/>
      <path d="M 34.28125 27.484375 
Q 23.390625 27.484375 19.1875 25 
Q 14.984375 22.515625 14.984375 16.5 
Q 14.984375 11.71875 18.140625 8.90625 
Q 21.296875 6.109375 26.703125 6.109375 
Q 34.1875 6.109375 38.703125 11.40625 
Q 43.21875 16.703125 43.21875 25.484375 
L 43.21875 27.484375 
z
M 52.203125 31.203125 
L 52.203125 0 
L 43.21875 0 
L 43.21875 8.296875 
Q 40.140625 3.328125 35.546875 0.953125 
Q 30.953125 -1.421875 24.3125 -1.421875 
Q 15.921875 -1.421875 10.953125 3.296875 
Q 6 8.015625 6 15.921875 
Q 6 25.140625 12.171875 29.828125 
Q 18.359375 34.515625 30.609375 34.515625 
L 43.21875 34.515625 
L 43.21875 35.40625 
Q 43.21875 41.609375 39.140625 45 
Q 35.0625 48.390625 27.6875 48.390625 
Q 23 48.390625 18.546875 47.265625 
Q 14.109375 46.140625 10.015625 43.890625 
L 10.015625 52.203125 
Q 14.9375 54.109375 19.578125 55.046875 
Q 24.21875 56 28.609375 56 
Q 40.484375 56 46.34375 49.84375 
Q 52.203125 43.703125 52.203125 31.203125 
z
" id="DejaVuSans-61"/>
      <path id="DejaVuSans-20"/>
      <path d="M 44.28125 53.078125 
L 44.28125 44.578125 
Q 40.484375 46.53125 36.375 47.5 
Q 32.28125 48.484375 27.875 48.484375 
Q 21.1875 48.484375 17.84375 46.4375 
Q 14.5 44.390625 14.5 40.28125 
Q 14.5 37.15625 16.890625 35.375 
Q 19.28125 33.59375 26.515625 31.984375 
L 29.59375 31.296875 
Q 39.15625 29.25 43.1875 25.515625 
Q 47.21875 21.78125 47.21875 15.09375 
Q 47.21875 7.46875 41.1875 3.015625 
Q 35.15625 -1.421875 24.609375 -1.421875 
Q 20.21875 -1.421875 15.453125 -0.5625 
Q 10.6875 0.296875 5.421875 2 
L 5.421875 11.28125 
Q 10.40625 8.6875 15.234375 7.390625 
Q 20.0625 6.109375 24.8125 6.109375 
Q 31.15625 6.109375 34.5625 8.28125 
Q 37.984375 10.453125 37.984375 14.40625 
Q 37.984375 18.0625 35.515625 20.015625 
Q 33.0625 21.96875 24.703125 23.78125 
L 21.578125 24.515625 
Q 13.234375 26.265625 9.515625 29.90625 
Q 5.8125 33.546875 5.8125 39.890625 
Q 5.8125 47.609375 11.28125 51.796875 
Q 16.75 56 26.8125 56 
Q 31.78125 56 36.171875 55.265625 
Q 40.578125 54.546875 44.28125 53.078125 
z
" id="DejaVuSans-73"/>
      <path d="M 18.3125 70.21875 
L 18.3125 54.6875 
L 36.8125 54.6875 
L 36.8125 47.703125 
L 18.3125 47.703125 
L 18.3125 18.015625 
Q 18.3125 11.328125 20.140625 9.421875 
Q 21.96875 7.515625 27.59375 7.515625 
L 36.8125 7.515625 
L 36.8125 0 
L 27.59375 0 
Q 17.1875 0 13.234375 3.875 
Q 9.28125 7.765625 9.28125 18.015625 
L 9.28125 47.703125 
L 2.6875 47.703125 
L 2.6875 54.6875 
L 9.28125 54.6875 
L 9.28125 70.21875 
z
" id="DejaVuSans-74"/>
      <path d="M 56.203125 29.59375 
L 56.203125 25.203125 
L 14.890625 25.203125 
Q 15.484375 15.921875 20.484375 11.0625 
Q 25.484375 6.203125 34.421875 6.203125 
Q 39.59375 6.203125 44.453125 7.46875 
Q 49.3125 8.734375 54.109375 11.28125 
L 54.109375 2.78125 
Q 49.265625 0.734375 44.1875 -0.34375 
Q 39.109375 -1.421875 33.890625 -1.421875 
Q 20.796875 -1.421875 13.15625 6.1875 
Q 5.515625 13.8125 5.515625 26.8125 
Q 5.515625 40.234375 12.765625 48.109375 
Q 20.015625 56 32.328125 56 
Q 43.359375 56 49.78125 48.890625 
Q 56.203125 41.796875 56.203125 29.59375 
z
M 47.21875 32.234375 
Q 47.125 39.59375 43.09375 43.984375 
Q 39.0625 48.390625 32.421875 48.390625 
Q 24.90625 48.390625 20.390625 44.140625 
Q 15.875 39.890625 15.1875 32.171875 
z
" id="DejaVuSans-65"/>
      <path d="M 18.109375 8.203125 
L 18.109375 -20.796875 
L 9.078125 -20.796875 
L 9.078125 54.6875 
L 18.109375 54.6875 
L 18.109375 46.390625 
Q 20.953125 51.265625 25.265625 53.625 
Q 29.59375 56 35.59375 56 
Q 45.5625 56 51.78125 48.09375 
Q 58.015625 40.1875 58.015625 27.296875 
Q 58.015625 14.40625 51.78125 6.484375 
Q 45.5625 -1.421875 35.59375 -1.421875 
Q 29.59375 -1.421875 25.265625 0.953125 
Q 20.953125 3.328125 18.109375 8.203125 
z
M 48.6875 27.296875 
Q 48.6875 37.203125 44.609375 42.84375 
Q 40.53125 48.484375 33.40625 48.484375 
Q 26.265625 48.484375 22.1875 42.84375 
Q 18.109375 37.203125 18.109375 27.296875 
Q 18.109375 17.390625 22.1875 11.75 
Q 26.265625 6.109375 33.40625 6.109375 
Q 40.53125 6.109375 44.609375 11.75 
Q 48.6875 17.390625 48.6875 27.296875 
z
" id="DejaVuSans-70"/>
     </defs>
     <g style="fill:#262626;" transform="translate(190.440625 276.776563)scale(0.1 -0.1)">
      <use xlink:href="#DejaVuSans-47"/>
      <use x="77.490234" xlink:href="#DejaVuSans-6c"/>
      <use x="105.273438" xlink:href="#DejaVuSans-6f"/>
      <use x="166.455078" xlink:href="#DejaVuSans-62"/>
      <use x="229.931641" xlink:href="#DejaVuSans-61"/>
      <use x="291.210938" xlink:href="#DejaVuSans-6c"/>
      <use x="318.994141" xlink:href="#DejaVuSans-20"/>
      <use x="350.78125" xlink:href="#DejaVuSans-73"/>
      <use x="402.880859" xlink:href="#DejaVuSans-74"/>
      <use x="442.089844" xlink:href="#DejaVuSans-65"/>
      <use x="503.613281" xlink:href="#DejaVuSans-70"/>
      <use x="567.089844" xlink:href="#DejaVuSans-73"/>
     </g>
    </g>
   </g>
   <g id="matplotlib.axis_2">
    <g id="ytick_1">
     <g id="line2d_13">
      <path clip-path="url(#p12722d00d9)" d="M 54 232.63243 
L 388.8 232.63243 
" style="fill:none;stroke:#ffffff;stroke-linecap:round;stroke-width:0.8;"/>
     </g>
     <g id="line2d_14"/>
     <g id="text_8">
      <!-- −40 -->
      <defs>
       <path d="M 10.59375 35.5 
L 73.1875 35.5 
L 73.1875 27.203125 
L 10.59375 27.203125 
z
" id="DejaVuSans-2212"/>
      </defs>
      <g style="fill:#262626;" transform="translate(29.395312 236.431649)scale(0.1 -0.1)">
       <use xlink:href="#DejaVuSans-2212"/>
       <use x="83.789062" xlink:href="#DejaVuSans-34"/>
       <use x="147.412109" xlink:href="#DejaVuSans-30"/>
      </g>
     </g>
    </g>
    <g id="ytick_2">
     <g id="line2d_15">
      <path clip-path="url(#p12722d00d9)" d="M 54 186.439215 
L 388.8 186.439215 
" style="fill:none;stroke:#ffffff;stroke-linecap:round;stroke-width:0.8;"/>
     </g>
     <g id="line2d_16"/>
     <g id="text_9">
      <!-- −20 -->
      <g style="fill:#262626;" transform="translate(29.395312 190.238434)scale(0.1 -0.1)">
       <use xlink:href="#DejaVuSans-2212"/>
       <use x="83.789062" xlink:href="#DejaVuSans-32"/>
       <use x="147.412109" xlink:href="#DejaVuSans-30"/>
      </g>
     </g>
    </g>
    <g id="ytick_3">
     <g id="line2d_17">
      <path clip-path="url(#p12722d00d9)" d="M 54 140.246 
L 388.8 140.246 
" style="fill:none;stroke:#ffffff;stroke-linecap:round;stroke-width:0.8;"/>
     </g>
     <g id="line2d_18"/>
     <g id="text_10">
      <!-- 0 -->
      <g style="fill:#262626;" transform="translate(44.1375 144.045218)scale(0.1 -0.1)">
       <use xlink:href="#DejaVuSans-30"/>
      </g>
     </g>
    </g>
    <g id="ytick_4">
     <g id="line2d_19">
      <path clip-path="url(#p12722d00d9)" d="M 54 94.052784 
L 388.8 94.052784 
" style="fill:none;stroke:#ffffff;stroke-linecap:round;stroke-width:0.8;"/>
     </g>
     <g id="line2d_20"/>
     <g id="text_11">
      <!-- 20 -->
      <g style="fill:#262626;" transform="translate(37.775 97.852003)scale(0.1 -0.1)">
       <use xlink:href="#DejaVuSans-32"/>
       <use x="63.623047" xlink:href="#DejaVuSans-30"/>
      </g>
     </g>
    </g>
    <g id="ytick_5">
     <g id="line2d_21">
      <path clip-path="url(#p12722d00d9)" d="M 54 47.859569 
L 388.8 47.859569 
" style="fill:none;stroke:#ffffff;stroke-linecap:round;stroke-width:0.8;"/>
     </g>
     <g id="line2d_22"/>
     <g id="text_12">
      <!-- 40 -->
      <g style="fill:#262626;" transform="translate(37.775 51.658788)scale(0.1 -0.1)">
       <use xlink:href="#DejaVuSans-34"/>
       <use x="63.623047" xlink:href="#DejaVuSans-30"/>
      </g>
     </g>
    </g>
    <g id="text_13">
     <!-- Delays -->
     <defs>
      <path d="M 19.671875 64.796875 
L 19.671875 8.109375 
L 31.59375 8.109375 
Q 46.6875 8.109375 53.6875 14.9375 
Q 60.6875 21.78125 60.6875 36.53125 
Q 60.6875 51.171875 53.6875 57.984375 
Q 46.6875 64.796875 31.59375 64.796875 
z
M 9.8125 72.90625 
L 30.078125 72.90625 
Q 51.265625 72.90625 61.171875 64.09375 
Q 71.09375 55.28125 71.09375 36.53125 
Q 71.09375 17.671875 61.125 8.828125 
Q 51.171875 0 30.078125 0 
L 9.8125 0 
z
" id="DejaVuSans-44"/>
      <path d="M 32.171875 -5.078125 
Q 28.375 -14.84375 24.75 -17.8125 
Q 21.140625 -20.796875 15.09375 -20.796875 
L 7.90625 -20.796875 
L 7.90625 -13.28125 
L 13.1875 -13.28125 
Q 16.890625 -13.28125 18.9375 -11.515625 
Q 21 -9.765625 23.484375 -3.21875 
L 25.09375 0.875 
L 2.984375 54.6875 
L 12.5 54.6875 
L 29.59375 11.921875 
L 46.6875 54.6875 
L 56.203125 54.6875 
z
" id="DejaVuSans-79"/>
     </defs>
     <g style="fill:#262626;" transform="translate(23.315625 160.22375)rotate(-90)scale(0.1 -0.1)">
      <use xlink:href="#DejaVuSans-44"/>
      <use x="77.001953" xlink:href="#DejaVuSans-65"/>
      <use x="138.525391" xlink:href="#DejaVuSans-6c"/>
      <use x="166.308594" xlink:href="#DejaVuSans-61"/>
      <use x="227.587891" xlink:href="#DejaVuSans-79"/>
      <use x="286.767578" xlink:href="#DejaVuSans-73"/>
     </g>
    </g>
   </g>
   <g id="line2d_23">
    <path clip-path="url(#p12722d00d9)" d="M 69.218182 86.415129 
L 69.827518 89.324237 
L 70.132187 89.342394 
L 70.436855 89.591787 
L 70.741523 89.24587 
L 71.046192 88.673526 
L 71.35086 88.776598 
L 71.655528 88.728991 
L 71.960197 87.824171 
L 72.264865 87.33599 
L 72.569533 88.608561 
L 73.17887 89.421675 
L 73.483538 89.425554 
L 74.092875 89.947196 
L 74.397543 90.633034 
L 74.702211 89.805512 
L 75.00688 89.554094 
L 75.616216 89.557186 
L 76.225553 89.206014 
L 76.530221 89.406252 
L 76.834889 89.392399 
L 77.139558 87.508529 
L 77.444226 87.11039 
L 78.053563 87.38149 
L 78.358231 87.125001 
L 78.662899 87.113438 
L 78.967568 86.936605 
L 79.272236 87.574391 
L 79.576904 87.674309 
L 79.881572 87.529682 
L 80.186241 87.553313 
L 80.490909 86.142948 
L 80.795577 86.872869 
L 81.100246 86.750033 
L 81.404914 86.932177 
L 82.014251 86.899119 
L 82.318919 86.819595 
L 82.623587 87.337915 
L 83.232924 86.995832 
L 83.537592 87.571386 
L 83.84226 86.806463 
L 84.146929 87.063981 
L 84.756265 88.033924 
L 85.060934 87.937602 
L 85.67027 84.933507 
L 85.974939 85.127129 
L 86.279607 85.990862 
L 86.584275 86.081096 
L 86.888943 85.491588 
L 87.193612 85.325162 
L 87.49828 84.506481 
L 87.802948 84.574888 
L 88.107617 83.738789 
L 88.412285 83.798339 
L 88.716953 81.927302 
L 89.021622 83.087945 
L 89.32629 82.943061 
L 89.630958 82.988349 
L 89.935627 82.321527 
L 90.240295 80.926346 
L 90.544963 80.862908 
L 90.849631 80.463194 
L 91.1543 80.491883 
L 91.458968 80.9424 
L 91.763636 82.202396 
L 92.677641 82.274378 
L 92.98231 82.093992 
L 93.286978 82.656328 
L 93.896314 82.583511 
L 94.200983 82.338623 
L 94.505651 82.382398 
L 94.810319 81.90718 
L 95.114988 81.918924 
L 95.419656 80.685522 
L 95.724324 80.749507 
L 96.028993 81.499111 
L 96.333661 81.25512 
L 96.638329 81.328246 
L 96.942998 80.624015 
L 97.247666 80.354619 
L 97.552334 79.410491 
L 97.857002 79.127835 
L 98.161671 79.114354 
L 98.466339 78.618115 
L 98.771007 79.022459 
L 99.075676 79.181464 
L 99.380344 79.791165 
L 99.685012 80.032963 
L 99.989681 80.523081 
L 100.294349 80.652255 
L 100.599017 80.494622 
L 100.903686 81.309312 
L 101.208354 81.703166 
L 101.513022 81.012553 
L 101.81769 81.049432 
L 102.122359 80.633816 
L 102.427027 79.760558 
L 102.731695 80.239155 
L 103.036364 81.177623 
L 103.341032 82.688714 
L 103.6457 82.785644 
L 103.950369 82.454357 
L 104.255037 81.486548 
L 104.559705 81.634225 
L 105.169042 80.628082 
L 105.47371 81.008147 
L 105.778378 81.051635 
L 106.083047 81.421387 
L 106.387715 81.315545 
L 106.997052 82.631525 
L 107.30172 82.757201 
L 107.606388 82.730149 
L 107.911057 82.10959 
L 108.215725 82.638544 
L 108.520393 82.28362 
L 108.825061 81.497652 
L 109.434398 83.316351 
L 110.043735 80.886003 
L 110.653071 80.80907 
L 110.95774 80.479958 
L 111.262408 81.063637 
L 111.567076 81.174407 
L 111.871744 80.898337 
L 113.090418 82.48491 
L 113.395086 82.488817 
L 113.699754 81.386677 
L 114.004423 81.307648 
L 114.613759 81.434788 
L 115.223096 80.306162 
L 115.527764 80.280879 
L 115.832432 79.415322 
L 116.137101 79.22953 
L 116.441769 80.245693 
L 116.746437 80.211857 
L 117.051106 81.534739 
L 117.355774 81.510673 
L 117.965111 80.92075 
L 118.269779 80.594964 
L 118.879115 81.21317 
L 119.183784 81.343199 
L 119.488452 81.329306 
L 119.79312 79.960846 
L 120.097789 80.253432 
L 120.402457 80.351701 
L 120.707125 79.724603 
L 121.011794 79.512119 
L 121.316462 80.003276 
L 121.925799 80.370521 
L 122.230467 80.692317 
L 122.535135 80.317416 
L 122.839803 80.463544 
L 123.44914 79.151024 
L 123.753808 78.717416 
L 124.058477 77.402986 
L 124.363145 77.448739 
L 125.27715 77.136236 
L 125.581818 76.649826 
L 125.886486 76.725971 
L 126.191155 77.448247 
L 126.800491 78.228536 
L 128.323833 77.780312 
L 128.628501 76.542327 
L 128.93317 76.158365 
L 129.237838 76.181512 
L 129.542506 75.219648 
L 130.151843 75.500505 
L 130.456511 75.323704 
L 131.065848 75.37449 
L 131.370516 74.847438 
L 131.675184 75.03105 
L 131.979853 75.69852 
L 132.284521 75.382422 
L 132.589189 75.506383 
L 132.893857 75.80636 
L 133.198526 75.76399 
L 133.503194 72.99042 
L 134.112531 71.810467 
L 134.417199 70.760673 
L 134.721867 70.51017 
L 135.026536 70.523231 
L 135.331204 70.211806 
L 135.635872 69.635745 
L 135.940541 69.949698 
L 136.549877 69.340643 
L 136.854545 69.689083 
L 137.159214 69.78457 
L 137.463882 70.044147 
L 137.76855 69.945612 
L 138.073219 68.654365 
L 138.377887 68.915417 
L 138.682555 68.892837 
L 138.987224 68.582019 
L 139.291892 68.84856 
L 139.59656 68.661147 
L 139.901229 67.135325 
L 140.205897 66.243763 
L 140.510565 66.202752 
L 140.815233 65.327653 
L 141.119902 65.219795 
L 141.729238 64.319128 
L 142.033907 64.917401 
L 143.557248 64.27236 
L 143.861916 65.989113 
L 144.166585 66.807772 
L 144.775921 65.712915 
L 145.08059 65.753085 
L 145.385258 65.542389 
L 145.689926 65.485826 
L 145.994595 65.130864 
L 146.299263 64.948045 
L 147.213268 65.219209 
L 147.517936 64.941509 
L 147.822604 64.302221 
L 148.127273 63.04624 
L 148.431941 62.925226 
L 148.736609 62.986342 
L 149.041278 63.282604 
L 149.345946 63.072776 
L 149.650614 62.134925 
L 149.955283 62.173424 
L 150.259951 61.117698 
L 150.564619 61.12658 
L 150.869287 60.633338 
L 151.173956 60.640694 
L 151.783292 61.391364 
L 152.087961 60.997037 
L 152.697297 61.044035 
L 153.001966 61.212892 
L 153.306634 60.557816 
L 153.915971 60.849723 
L 154.220639 61.211298 
L 154.525307 60.688815 
L 155.439312 62.929348 
L 156.048649 62.766119 
L 156.353317 62.294104 
L 156.962654 62.98417 
L 157.267322 62.497967 
L 157.57199 61.456674 
L 157.876658 61.609102 
L 158.485995 61.475723 
L 158.790663 61.575356 
L 159.095332 71.23824 
L 159.4 71.876755 
L 159.704668 70.711433 
L 160.009337 100.365142 
L 160.314005 73.281286 
L 160.618673 69.252999 
L 160.923342 81.489285 
L 161.22801 72.634626 
L 161.532678 86.011471 
L 161.837346 79.824019 
L 162.142015 65.928412 
L 162.446683 83.594638 
L 162.751351 62.336822 
L 163.05602 63.978959 
L 163.360688 113.178755 
L 163.665356 61.180056 
L 163.970025 60.872815 
L 164.274693 71.541386 
L 164.884029 83.34195 
L 165.188698 65.913102 
L 165.493366 127.751812 
L 165.798034 72.639617 
L 166.102703 71.599642 
L 166.712039 63.259237 
L 167.016708 84.688371 
L 167.321376 60.38599 
L 167.626044 58.683876 
L 167.930713 135.054237 
L 168.235381 128.038722 
L 168.540049 108.487081 
L 168.844717 109.86621 
L 169.149386 78.279004 
L 169.454054 69.840844 
L 169.758722 64.88521 
L 170.063391 75.993534 
L 170.368059 79.135909 
L 170.672727 74.157054 
L 170.977396 74.234019 
L 171.282064 100.256288 
L 171.586732 102.903293 
L 171.8914 65.711436 
L 172.500737 139.664677 
L 172.805405 138.568341 
L 173.110074 130.755347 
L 173.414742 101.956168 
L 173.71941 85.435097 
L 174.328747 73.493106 
L 174.633415 90.222283 
L 174.938084 113.497239 
L 175.242752 111.830869 
L 175.54742 97.338666 
L 175.852088 73.852085 
L 176.156757 111.765107 
L 176.461425 104.758124 
L 176.766093 111.041604 
L 177.070762 75.083244 
L 177.37543 71.876263 
L 177.680098 63.992618 
L 177.984767 60.878106 
L 178.289435 99.873529 
L 178.594103 111.315509 
L 178.898771 149.09636 
L 179.20344 121.183336 
L 179.508108 130.502621 
L 179.812776 91.374865 
L 180.117445 106.411307 
L 180.422113 132.177129 
L 180.726781 133.859861 
L 181.336118 149.276732 
L 181.640786 108.622044 
L 181.945455 142.694306 
L 182.250123 130.712883 
L 182.554791 111.490507 
L 182.859459 121.421954 
L 183.164128 88.619711 
L 183.468796 94.842409 
L 183.773464 96.577093 
L 184.078133 90.641485 
L 184.382801 96.997783 
L 184.687469 89.929496 
L 184.992138 107.94226 
L 185.296806 115.799806 
L 185.601474 110.58842 
L 185.906143 116.756822 
L 186.210811 116.011225 
L 186.515479 99.048049 
L 186.820147 103.898683 
L 187.124816 99.154323 
L 187.429484 98.025187 
L 188.343489 168.587457 
L 189.257494 92.615926 
L 189.562162 67.789144 
L 189.86683 93.429226 
L 190.476167 125.693024 
L 190.780835 168.404083 
L 191.085504 143.660543 
L 191.390172 164.724339 
L 191.69484 146.647848 
L 191.999509 100.435862 
L 192.304177 107.200184 
L 192.608845 72.059888 
L 192.913514 68.348575 
L 193.218182 79.395991 
L 193.52285 80.908164 
L 193.827518 97.648924 
L 194.132187 107.591409 
L 194.436855 113.74661 
L 194.741523 105.727001 
L 195.046192 89.580034 
L 195.35086 95.847392 
L 195.655528 81.509532 
L 195.960197 86.359341 
L 196.264865 84.997515 
L 196.569533 82.112361 
L 196.874201 82.857543 
L 197.17887 122.087411 
L 197.483538 126.976726 
L 197.788206 122.181981 
L 198.092875 188.111681 
L 198.397543 154.513139 
L 198.702211 157.540106 
L 199.00688 151.501722 
L 199.311548 95.288181 
L 199.920885 90.848087 
L 200.225553 120.681342 
L 200.530221 122.210416 
L 200.834889 120.278636 
L 201.139558 124.126835 
L 201.444226 90.379612 
L 201.748894 91.557482 
L 202.053563 101.571305 
L 202.358231 91.833726 
L 202.662899 107.057662 
L 202.967568 166.416877 
L 203.272236 156.825321 
L 203.576904 153.168749 
L 203.881572 152.818925 
L 204.186241 194.703277 
L 204.490909 204.446252 
L 204.795577 204.425605 
L 205.100246 191.14778 
L 205.404914 71.99339 
L 205.709582 59.580495 
L 206.014251 59.610915 
L 206.318919 97.768962 
L 206.623587 102.52209 
L 206.928256 101.864908 
L 207.232924 113.386885 
L 207.537592 90.782925 
L 207.84226 97.384299 
L 208.146929 97.521848 
L 208.451597 85.701745 
L 208.756265 92.006885 
L 209.060934 103.182291 
L 209.67027 113.370251 
L 209.974939 102.221061 
L 210.279607 79.225019 
L 210.584275 83.644598 
L 210.888943 83.889652 
L 211.193612 78.174192 
L 211.49828 82.866579 
L 211.802948 110.382177 
L 212.107617 118.892414 
L 212.412285 133.390012 
L 212.716953 136.137555 
L 213.021622 103.460914 
L 213.32629 95.820522 
L 213.630958 72.730752 
L 213.935627 91.143854 
L 214.240295 86.48787 
L 214.544963 89.970751 
L 214.849631 137.381854 
L 215.1543 116.182304 
L 215.458968 136.182198 
L 215.763636 128.52979 
L 216.068305 107.225836 
L 216.372973 99.473312 
L 216.677641 105.788395 
L 216.98231 104.036273 
L 217.286978 80.934183 
L 217.591646 93.796446 
L 217.896314 79.736776 
L 218.200983 118.812123 
L 218.505651 118.391707 
L 218.810319 122.945385 
L 219.114988 110.197375 
L 219.419656 72.22652 
L 219.724324 71.295177 
L 220.028993 72.443928 
L 220.942998 134.582444 
L 221.247666 127.647718 
L 222.161671 73.225071 
L 222.466339 61.965688 
L 222.771007 71.095134 
L 223.075676 101.316503 
L 223.380344 107.648688 
L 223.685012 132.23432 
L 223.989681 133.747397 
L 224.294349 98.176271 
L 224.599017 91.383036 
L 225.208354 64.309422 
L 225.513022 62.813312 
L 225.81769 66.085201 
L 226.427027 69.516942 
L 226.731695 76.470327 
L 227.341032 68.82991 
L 227.6457 71.926317 
L 227.950369 63.559464 
L 228.255037 66.648396 
L 228.559705 114.397539 
L 228.864373 124.730317 
L 229.169042 152.57677 
L 229.47371 150.860919 
L 229.778378 124.492463 
L 230.083047 108.874366 
L 230.387715 111.258848 
L 230.692383 148.081389 
L 230.997052 122.137313 
L 231.30172 141.110468 
L 231.911057 96.547526 
L 232.215725 96.749952 
L 232.825061 67.066425 
L 233.12973 75.596357 
L 233.434398 119.07207 
L 233.739066 125.677416 
L 234.043735 129.478906 
L 234.348403 118.256202 
L 234.653071 90.987806 
L 234.95774 84.170596 
L 235.262408 80.977506 
L 235.567076 80.916964 
L 235.871744 88.888679 
L 236.176413 123.571623 
L 236.481081 130.509539 
L 236.785749 151.129139 
L 237.395086 95.502901 
L 237.699754 129.677141 
L 238.004423 105.150289 
L 238.309091 123.365872 
L 238.613759 119.9224 
L 238.918428 106.047899 
L 239.223096 111.678554 
L 239.527764 128.76976 
L 239.832432 127.176618 
L 240.137101 98.910715 
L 240.441769 92.597945 
L 240.746437 56.165507 
L 241.355774 131.025908 
L 241.660442 146.385209 
L 241.965111 171.421386 
L 242.269779 146.365032 
L 242.574447 133.769253 
L 242.879115 135.433176 
L 243.183784 111.280001 
L 243.79312 138.499031 
L 244.097789 117.922876 
L 244.402457 139.621982 
L 244.707125 136.956907 
L 245.011794 99.634549 
L 245.316462 99.50945 
L 245.62113 82.645414 
L 245.925799 112.48962 
L 246.230467 122.016469 
L 246.839803 127.605211 
L 247.144472 77.319148 
L 247.44914 74.433889 
L 247.753808 73.429816 
L 248.058477 66.819531 
L 248.363145 82.706838 
L 248.972482 97.049701 
L 249.27715 121.720315 
L 249.886486 93.731732 
L 250.191155 99.425059 
L 250.495823 76.013829 
L 250.800491 77.724556 
L 251.10516 94.035068 
L 251.409828 83.230871 
L 251.714496 95.938023 
L 252.019165 101.348032 
L 252.323833 127.317604 
L 252.628501 122.023784 
L 252.93317 112.394439 
L 253.237838 121.420014 
L 253.542506 141.41706 
L 253.847174 142.953687 
L 254.151843 165.651412 
L 254.456511 171.019527 
L 254.761179 130.969944 
L 255.065848 130.833902 
L 255.370516 108.785741 
L 255.675184 98.034661 
L 255.979853 95.817095 
L 256.284521 87.185062 
L 256.589189 84.289775 
L 256.893857 103.965583 
L 257.198526 101.045043 
L 257.503194 102.334538 
L 257.807862 126.132283 
L 258.112531 127.055134 
L 258.417199 109.840729 
L 258.721867 134.075732 
L 259.026536 125.992545 
L 259.331204 92.509332 
L 259.635872 103.551527 
L 259.940541 107.945214 
L 260.245209 78.870941 
L 260.549877 92.127098 
L 260.854545 86.436109 
L 261.159214 73.633777 
L 261.463882 87.964649 
L 261.76855 94.562236 
L 262.073219 81.705754 
L 262.377887 81.799361 
L 262.682555 94.832436 
L 262.987224 92.729131 
L 263.291892 117.089727 
L 263.59656 121.897039 
L 263.901229 129.850978 
L 264.205897 126.231595 
L 264.815233 71.791342 
L 265.119902 68.717454 
L 265.729238 109.741604 
L 266.033907 114.368601 
L 266.947912 137.11643 
L 267.25258 102.298848 
L 267.557248 88.822203 
L 267.861916 91.398796 
L 268.166585 86.335714 
L 268.471253 85.094335 
L 268.775921 73.404225 
L 269.08059 73.384339 
L 269.385258 77.723153 
L 269.689926 70.738909 
L 269.994595 71.549483 
L 270.299263 99.738584 
L 270.603931 112.024141 
L 270.9086 113.71983 
L 271.213268 120.585062 
L 271.517936 133.366775 
L 271.822604 131.523744 
L 272.127273 97.293993 
L 272.431941 91.729673 
L 272.736609 96.982651 
L 273.041278 81.998629 
L 273.345946 73.518005 
L 273.650614 83.991092 
L 273.955283 90.548738 
L 274.259951 101.294924 
L 274.869287 160.576802 
L 275.173956 158.763171 
L 275.478624 149.006619 
L 275.783292 150.491496 
L 276.087961 156.365059 
L 276.697297 111.488887 
L 277.001966 116.542313 
L 277.306634 124.657029 
L 277.611302 152.621668 
L 277.915971 214.562446 
L 278.220639 202.19983 
L 278.525307 203.897735 
L 278.829975 210.053448 
L 279.134644 207.181212 
L 279.439312 179.783149 
L 279.74398 88.97817 
L 280.048649 88.955213 
L 280.353317 81.542363 
L 280.657985 65.371045 
L 280.962654 75.103407 
L 281.267322 63.163777 
L 281.57199 63.127116 
L 281.876658 70.326475 
L 282.181327 89.32784 
L 282.485995 125.733653 
L 282.790663 118.850815 
L 283.095332 118.815627 
L 283.704668 125.134556 
L 284.009337 105.57909 
L 284.314005 71.998053 
L 284.923342 85.349985 
L 285.22801 140.436013 
L 285.532678 138.931943 
L 285.837346 126.846812 
L 286.142015 128.364741 
L 286.446683 121.84043 
L 286.751351 118.717414 
L 287.05602 71.910538 
L 287.360688 69.891281 
L 287.665356 70.909235 
L 287.970025 76.369147 
L 288.274693 73.166129 
L 288.579361 75.712669 
L 288.884029 102.437318 
L 289.188698 95.733238 
L 289.493366 102.25585 
L 289.798034 96.054653 
L 290.407371 120.184804 
L 290.712039 108.623191 
L 291.016708 143.491555 
L 291.626044 173.5669 
L 292.235381 162.961774 
L 292.540049 146.599993 
L 292.844717 107.07691 
L 293.149386 110.443887 
L 293.454054 102.474291 
L 293.758722 99.646517 
L 294.063391 99.429209 
L 294.368059 94.457026 
L 294.672727 128.39106 
L 294.977396 128.581807 
L 295.282064 133.269836 
L 295.8914 125.540984 
L 296.196069 149.759562 
L 296.500737 116.18467 
L 296.805405 117.638133 
L 297.110074 104.942583 
L 297.414742 104.544551 
L 297.71941 123.841739 
L 298.024079 101.22794 
L 298.328747 109.070801 
L 298.633415 100.873249 
L 298.938084 104.061835 
L 299.242752 121.943162 
L 299.54742 112.340752 
L 299.852088 116.789998 
L 300.156757 118.447623 
L 300.766093 101.443245 
L 301.070762 115.313133 
L 301.37543 102.236705 
L 301.680098 114.708589 
L 301.984767 120.910341 
L 302.289435 109.216065 
L 302.594103 118.569327 
L 302.898771 104.242238 
L 303.20344 107.433258 
L 303.508108 96.03246 
L 303.812776 80.091913 
L 304.117445 93.420132 
L 304.422113 85.351866 
L 304.726781 64.113351 
L 305.03145 85.071005 
L 305.336118 77.195702 
L 305.640786 88.4567 
L 305.945455 93.641367 
L 306.554791 127.713849 
L 306.859459 122.342988 
L 307.468796 150.809454 
L 307.773464 145.677111 
L 308.078133 123.629046 
L 308.382801 116.876313 
L 308.992138 90.914097 
L 309.296806 62.622263 
L 309.601474 48.305997 
L 309.906143 84.746199 
L 310.515479 71.124105 
L 310.820147 67.704009 
L 311.124816 80.54985 
L 311.429484 85.341898 
L 311.734152 97.223828 
L 312.038821 97.269158 
L 312.343489 106.170632 
L 312.648157 108.18867 
L 312.952826 105.219668 
L 313.257494 114.250684 
L 313.562162 67.589595 
L 313.86683 67.080246 
L 314.171499 53.501983 
L 314.476167 56.641644 
L 314.780835 54.480728 
L 315.085504 44.443636 
L 315.390172 45.412362 
L 315.69484 70.029739 
L 315.999509 79.350283 
L 316.304177 72.954236 
L 316.608845 76.846444 
L 317.218182 126.94843 
L 317.52285 142.742422 
L 317.827518 169.560805 
L 318.132187 179.199407 
L 318.436855 176.822132 
L 318.741523 150.176957 
L 319.046192 174.231514 
L 319.35086 133.19815 
L 319.960197 111.773784 
L 320.264865 118.312838 
L 320.569533 118.189621 
L 320.874201 69.907182 
L 321.17887 85.841474 
L 321.483538 69.62321 
L 321.788206 73.069861 
L 322.092875 63.118593 
L 322.397543 87.798303 
L 322.702211 86.295664 
L 323.00688 74.333676 
L 323.311548 69.433069 
L 323.616216 67.944099 
L 323.920885 83.91797 
L 324.225553 58.880762 
L 324.530221 75.373374 
L 324.834889 73.711343 
L 325.139558 100.990114 
L 325.444226 110.666825 
L 326.053563 98.572059 
L 326.358231 98.143261 
L 326.662899 131.995458 
L 326.967568 106.445454 
L 327.272236 120.858667 
L 327.576904 143.035396 
L 327.881572 176.556051 
L 328.186241 159.699589 
L 328.490909 128.530695 
L 328.795577 126.271885 
L 329.100246 127.424089 
L 329.709582 67.689663 
L 330.014251 136.08439 
L 330.623587 150.333267 
L 330.928256 122.366247 
L 331.537592 150.44485 
L 331.84226 89.264247 
L 332.146929 83.061039 
L 332.451597 88.251706 
L 332.756265 107.072645 
L 333.060934 83.796764 
L 333.365602 73.752052 
L 333.67027 72.131674 
L 333.974939 79.050433 
L 334.279607 159.023633 
L 334.584275 150.81512 
L 334.888943 147.537881 
L 335.193612 147.645839 
L 335.49828 165.306007 
L 335.802948 163.28186 
L 336.107617 100.82287 
L 336.412285 97.707931 
L 336.716953 114.569035 
L 337.021622 116.458372 
L 337.32629 120.418215 
L 337.630958 119.073609 
L 337.935627 102.432322 
L 338.240295 127.769785 
L 338.544963 123.965345 
L 338.849631 142.489582 
L 339.1543 118.228452 
L 339.763636 104.477812 
L 340.068305 87.020682 
L 340.372973 85.205727 
L 340.677641 94.987592 
L 340.98231 94.561234 
L 341.286978 96.083533 
L 341.591646 84.977778 
L 341.896314 81.279382 
L 342.200983 87.742435 
L 342.505651 56.904897 
L 342.810319 65.418239 
L 343.114988 65.53198 
L 343.419656 70.40944 
L 343.724324 71.879369 
L 344.028993 55.579297 
L 344.333661 137.627413 
L 344.638329 143.460815 
L 345.247666 144.010364 
L 345.552334 158.30892 
L 345.857002 161.43757 
L 346.161671 77.316299 
L 346.466339 62.659795 
L 346.771007 62.569573 
L 347.075676 65.681645 
L 347.380344 45.906712 
L 347.685012 45.332463 
L 347.989681 58.041918 
L 348.294349 56.1765 
L 348.599017 59.332757 
L 349.208354 49.708649 
L 349.513022 67.146987 
L 349.81769 102.871985 
L 350.122359 120.777748 
L 350.427027 124.269413 
L 350.731695 125.819803 
L 351.036364 147.308494 
L 351.341032 137.956091 
L 351.6457 111.064883 
L 351.950369 108.935814 
L 352.255037 109.024291 
L 352.559705 102.131543 
L 352.864373 84.216811 
L 353.169042 79.802602 
L 353.47371 118.247863 
L 354.083047 97.000087 
L 354.387715 100.382281 
L 354.997052 92.910095 
L 355.30172 82.40928 
L 355.606388 100.557103 
L 355.911057 142.258006 
L 356.520393 152.506252 
L 356.825061 174.762437 
L 357.12973 129.33238 
L 357.434398 130.790201 
L 357.739066 91.546664 
L 358.043735 86.813422 
L 358.348403 115.598328 
L 358.653071 103.275685 
L 358.95774 116.707317 
L 359.262408 93.725638 
L 359.567076 104.850824 
L 359.871744 104.397723 
L 360.176413 75.658944 
L 360.481081 86.531328 
L 360.785749 67.963073 
L 361.090418 71.103179 
L 361.395086 90.061118 
L 361.699754 88.096329 
L 362.004423 90.274726 
L 362.309091 80.312086 
L 362.613759 90.224945 
L 362.918428 92.028006 
L 363.223096 86.734985 
L 363.832432 101.512707 
L 364.137101 86.235604 
L 364.441769 83.241083 
L 364.746437 84.515785 
L 365.051106 64.619554 
L 365.355774 59.659688 
L 365.660442 66.77787 
L 365.965111 64.90812 
L 366.269779 99.033799 
L 366.574447 104.034071 
L 366.879115 112.374771 
L 367.183784 112.35486 
L 367.488452 100.024488 
L 367.79312 132.864983 
L 368.097789 99.252938 
L 368.402457 102.706599 
L 368.707125 88.041381 
L 369.011794 134.765519 
L 369.316462 123.253089 
L 369.62113 98.821601 
L 369.925799 175.528005 
L 370.230467 160.122432 
L 370.535135 169.691187 
L 370.839803 121.928803 
L 371.144472 132.420791 
L 371.44914 166.715173 
L 371.753808 114.124767 
L 372.363145 141.679388 
L 372.667813 139.86692 
L 372.972482 132.121469 
L 373.27715 96.866349 
L 373.581818 134.905838 
L 373.581818 134.905838 
" style="fill:none;stroke:#1f77b4;stroke-linecap:round;stroke-width:1.5;"/>
   </g>
   <g id="line2d_24">
    <path clip-path="url(#p12722d00d9)" d="M 69.218182 122.589627 
L 69.52285 122.721881 
L 69.827518 123.634942 
L 70.436855 123.351223 
L 70.741523 123.819579 
L 71.046192 122.055732 
L 71.35086 121.770433 
L 71.655528 121.027134 
L 71.960197 121.045996 
L 72.264865 120.808508 
L 72.874201 121.084988 
L 73.17887 121.383606 
L 73.483538 120.132786 
L 73.788206 120.206953 
L 74.092875 120.520269 
L 74.397543 121.016831 
L 75.00688 120.386634 
L 75.616216 120.330686 
L 75.920885 120.442577 
L 76.225553 120.167209 
L 76.530221 120.390706 
L 76.834889 120.092574 
L 77.139558 121.663978 
L 77.444226 120.30072 
L 77.748894 120.614654 
L 78.053563 120.433606 
L 78.358231 120.008533 
L 78.662899 119.921447 
L 78.967568 120.020665 
L 79.576904 120.746767 
L 79.881572 120.715298 
L 80.186241 120.849955 
L 80.490909 120.081904 
L 81.100246 121.336149 
L 81.404914 121.011446 
L 82.014251 120.907313 
L 82.318919 121.158038 
L 82.928256 120.377512 
L 83.232924 120.230556 
L 83.537592 121.103352 
L 83.84226 119.741266 
L 84.146929 120.626678 
L 84.451597 120.67996 
L 84.756265 120.924953 
L 85.060934 120.538287 
L 85.365602 119.715142 
L 85.67027 118.550509 
L 85.974939 118.43973 
L 86.279607 120.096925 
L 86.584275 120.285802 
L 86.888943 120.23572 
L 87.193612 119.846775 
L 87.49828 119.952036 
L 87.802948 120.448611 
L 88.107617 119.443719 
L 88.412285 119.372451 
L 89.021622 117.815588 
L 89.32629 118.169819 
L 89.630958 117.984812 
L 89.935627 118.290784 
L 90.240295 117.41195 
L 90.849631 116.815637 
L 91.1543 116.881957 
L 91.458968 116.160688 
L 91.763636 117.202006 
L 92.068305 117.232596 
L 92.372973 116.837699 
L 92.677641 116.736447 
L 92.98231 116.805784 
L 93.286978 117.397632 
L 93.896314 117.548675 
L 94.200983 117.34479 
L 94.505651 117.405141 
L 95.114988 117.259921 
L 95.419656 116.508555 
L 96.028993 116.567597 
L 96.333661 115.352684 
L 96.638329 114.903203 
L 96.942998 113.980256 
L 97.247666 113.824632 
L 97.552334 114.116573 
L 97.857002 114.060624 
L 98.161671 114.213427 
L 98.466339 113.731645 
L 98.771007 113.615954 
L 99.075676 113.700085 
L 99.380344 113.067964 
L 99.685012 112.773347 
L 99.989681 112.990015 
L 100.599017 112.664933 
L 100.903686 113.311221 
L 101.513022 113.882367 
L 101.81769 113.761633 
L 102.122359 113.981807 
L 102.427027 112.828414 
L 102.731695 113.17695 
L 103.036364 113.118175 
L 103.341032 114.183301 
L 103.6457 114.563532 
L 103.950369 114.629877 
L 104.255037 114.297741 
L 104.559705 114.478765 
L 104.864373 114.155891 
L 105.169042 114.117534 
L 105.47371 114.302589 
L 105.778378 114.15266 
L 106.083047 114.581595 
L 106.387715 114.504012 
L 107.30172 115.142345 
L 107.606388 115.033032 
L 107.911057 115.112728 
L 108.215725 115.683948 
L 108.520393 116.017442 
L 109.12973 115.633434 
L 109.434398 116.527472 
L 109.739066 115.576422 
L 110.043735 115.24064 
L 110.348403 115.154586 
L 110.653071 114.071032 
L 110.95774 114.311524 
L 111.262408 114.852548 
L 111.567076 114.752511 
L 111.871744 115.64777 
L 112.481081 115.574405 
L 112.785749 115.708565 
L 113.395086 115.638783 
L 113.699754 115.238836 
L 114.309091 115.275025 
L 114.613759 115.081024 
L 114.918428 115.503438 
L 115.223096 114.160103 
L 115.832432 113.770148 
L 116.441769 112.779644 
L 116.746437 112.805843 
L 117.051106 114.418523 
L 117.355774 114.840848 
L 117.965111 114.473813 
L 118.574447 115.236547 
L 118.879115 115.943901 
L 119.183784 115.31818 
L 119.79312 115.206184 
L 120.097789 115.442218 
L 120.402457 116.094594 
L 120.707125 116.04177 
L 121.011794 116.309206 
L 121.316462 116.816733 
L 121.925799 116.735879 
L 122.230467 116.220133 
L 122.535135 116.129246 
L 122.839803 116.686335 
L 123.44914 117.001066 
L 123.753808 115.580031 
L 124.058477 115.379939 
L 124.667813 116.679117 
L 125.27715 116.12741 
L 125.581818 116.204874 
L 125.886486 115.30875 
L 126.191155 115.316949 
L 126.800491 116.313895 
L 127.10516 116.220224 
L 127.409828 115.891481 
L 127.714496 115.978647 
L 128.019165 115.156716 
L 128.323833 115.195478 
L 128.628501 115.580335 
L 129.237838 114.913891 
L 129.542506 114.652834 
L 129.847174 114.672676 
L 130.151843 114.494105 
L 131.065848 112.300512 
L 131.370516 112.289946 
L 131.675184 111.809439 
L 132.284521 111.778937 
L 132.589189 111.988589 
L 132.893857 112.051475 
L 133.198526 111.990261 
L 133.503194 110.898437 
L 134.112531 110.293148 
L 134.721867 108.570238 
L 135.026536 108.374705 
L 135.331204 107.884796 
L 135.635872 107.858705 
L 135.940541 108.209474 
L 136.245209 107.682688 
L 136.549877 107.585197 
L 136.854545 108.335455 
L 137.159214 108.174976 
L 137.463882 108.562456 
L 137.76855 108.061636 
L 138.073219 107.13514 
L 138.377887 107.569136 
L 138.987224 107.232898 
L 139.291892 107.393822 
L 139.59656 107.392217 
L 139.901229 107.262197 
L 140.205897 106.879361 
L 140.510565 106.108955 
L 140.815233 106.344111 
L 141.119902 104.86639 
L 141.42457 104.418249 
L 142.033907 105.581503 
L 142.338575 104.058809 
L 142.947912 103.46218 
L 143.25258 103.308132 
L 143.557248 103.326604 
L 143.861916 104.863768 
L 144.166585 105.126278 
L 144.471253 105.172524 
L 144.775921 105.050878 
L 145.08059 105.119207 
L 145.385258 104.525028 
L 146.299263 104.508937 
L 146.603931 104.819557 
L 147.517936 104.632827 
L 148.431941 103.344218 
L 148.736609 103.312566 
L 149.345946 102.836686 
L 149.650614 103.627895 
L 150.259951 102.47202 
L 150.869287 102.35373 
L 151.173956 101.722186 
L 151.478624 103.000639 
L 151.783292 103.160814 
L 152.087961 102.566333 
L 152.392629 102.445518 
L 152.697297 102.51231 
L 153.001966 102.007959 
L 153.306634 100.939966 
L 153.611302 101.015794 
L 153.915971 100.154447 
L 154.220639 100.391998 
L 154.525307 99.697409 
L 154.829975 99.752413 
L 155.439312 100.1429 
L 155.74398 99.452847 
L 156.048649 99.608278 
L 156.353317 99.408815 
L 156.657985 100.056425 
L 156.962654 99.676368 
L 157.267322 100.540463 
L 157.57199 99.674603 
L 157.876658 99.731516 
L 158.181327 98.829492 
L 158.485995 98.574178 
L 158.790663 98.618615 
L 159.095332 109.006879 
L 159.4 109.958042 
L 159.704668 108.62552 
L 160.009337 138.52566 
L 160.314005 111.391686 
L 160.618673 108.014636 
L 160.923342 120.681111 
L 161.22801 110.619288 
L 161.532678 123.282339 
L 161.837346 118.280724 
L 162.142015 104.384065 
L 162.446683 122.223943 
L 162.751351 100.881738 
L 163.05602 102.586685 
L 163.360688 151.914708 
L 163.665356 101.876084 
L 163.970025 101.709737 
L 164.274693 112.287817 
L 164.884029 125.720546 
L 165.188698 109.307607 
L 165.493366 171.072454 
L 165.798034 112.952158 
L 166.102703 112.361292 
L 166.712039 105.091672 
L 167.016708 126.318911 
L 167.321376 99.794133 
L 167.626044 98.03131 
L 167.930713 174.393531 
L 168.235381 109.541065 
L 168.540049 134.75787 
L 168.844717 112.143659 
L 169.149386 103.7134 
L 169.454054 102.806119 
L 169.758722 97.694522 
L 170.063391 113.85746 
L 170.368059 100.080869 
L 170.672727 108.329302 
L 170.977396 99.376262 
L 171.282064 133.776201 
L 171.586732 101.922122 
L 171.8914 98.359129 
L 172.196069 140.2577 
L 172.500737 153.071539 
L 172.805405 155.746079 
L 173.414742 115.39054 
L 173.71941 110.350668 
L 174.024079 108.569855 
L 174.328747 103.576268 
L 174.633415 122.160916 
L 174.938084 148.909101 
L 175.54742 107.255069 
L 175.852088 111.27977 
L 176.156757 139.489066 
L 176.461425 139.55732 
L 176.766093 109.371532 
L 177.070762 109.673766 
L 177.37543 98.865286 
L 177.680098 97.80586 
L 177.984767 97.950354 
L 178.289435 135.428441 
L 178.594103 148.664892 
L 179.20344 143.638502 
L 179.812776 117.742496 
L 180.117445 122.819 
L 180.422113 169.735517 
L 180.726781 164.462206 
L 181.03145 161.234348 
L 181.336118 141.035758 
L 181.640786 146.039887 
L 181.945455 167.066127 
L 182.250123 142.719203 
L 182.554791 142.488852 
L 182.859459 125.014376 
L 183.164128 123.254679 
L 183.468796 126.142117 
L 183.773464 118.378283 
L 184.078133 126.419457 
L 184.382801 125.105962 
L 184.687469 120.122025 
L 184.992138 136.690981 
L 185.296806 145.438509 
L 185.601474 145.175115 
L 185.906143 129.740513 
L 186.210811 136.492673 
L 186.820147 133.467298 
L 187.124816 114.530412 
L 188.038821 180.686678 
L 188.343489 184.365645 
L 189.257494 103.283682 
L 189.562162 105.20738 
L 189.86683 130.923555 
L 190.171499 143.669493 
L 190.780835 182.016219 
L 191.085504 167.290805 
L 191.390172 182.354832 
L 191.69484 139.476417 
L 191.999509 139.452036 
L 192.304177 110.28037 
L 192.608845 107.793032 
L 192.913514 107.74247 
L 193.218182 111.738305 
L 193.52285 117.769304 
L 193.827518 136.353607 
L 194.132187 134.568259 
L 194.436855 144.242133 
L 194.741523 125.179065 
L 195.046192 115.820665 
L 195.35086 113.703196 
L 195.960197 120.253303 
L 196.264865 103.62938 
L 196.569533 114.197724 
L 196.874201 113.154578 
L 197.17887 157.043957 
L 197.483538 149.059265 
L 197.788206 153.593918 
L 198.092875 178.668584 
L 198.397543 184.894551 
L 198.702211 184.564564 
L 199.00688 118.554276 
L 199.311548 122.995662 
L 199.616216 120.89836 
L 199.920885 123.968584 
L 200.225553 142.666936 
L 200.530221 151.946231 
L 200.834889 150.01359 
L 201.444226 111.665842 
L 201.748894 122.680459 
L 202.358231 129.645111 
L 202.662899 127.125039 
L 202.967568 187.789366 
L 203.272236 190.797184 
L 203.576904 176.272488 
L 203.881572 115.325116 
L 204.186241 225.949004 
L 204.490909 242.116364 
L 204.795577 227.699162 
L 205.100246 111.801002 
L 205.404914 96.91186 
L 205.709582 100.334752 
L 206.014251 98.731086 
L 206.318919 136.938123 
L 206.928256 143.382787 
L 207.232924 115.585363 
L 207.84226 136.250551 
L 208.146929 128.23926 
L 208.451597 111.546992 
L 208.756265 120.747914 
L 209.060934 142.120394 
L 209.365602 150.261444 
L 209.974939 119.953971 
L 210.279607 113.453149 
L 210.584275 121.959641 
L 210.888943 113.604657 
L 211.193612 119.497557 
L 211.49828 112.30435 
L 211.802948 148.668953 
L 212.107617 153.696851 
L 212.412285 169.553135 
L 212.716953 137.692504 
L 213.021622 133.005419 
L 213.32629 115.111575 
L 213.630958 105.593339 
L 213.935627 125.841494 
L 214.240295 124.518592 
L 214.544963 132.745378 
L 214.849631 150.872852 
L 215.1543 156.093587 
L 215.458968 171.069498 
L 215.763636 123.548011 
L 216.068305 142.515514 
L 216.372973 119.791907 
L 216.677641 147.152355 
L 216.98231 121.801173 
L 217.286978 124.923491 
L 217.591646 108.711531 
L 217.896314 124.167565 
L 218.200983 160.123155 
L 218.505651 149.983977 
L 218.810319 150.88649 
L 219.114988 114.523951 
L 219.419656 112.821604 
L 219.724324 97.805066 
L 220.028993 111.859909 
L 220.638329 168.042197 
L 220.942998 160.355409 
L 221.247666 143.794329 
L 221.552334 115.703382 
L 221.857002 115.349159 
L 222.161671 104.139245 
L 222.466339 98.58353 
L 222.771007 102.878018 
L 223.075676 142.879028 
L 223.380344 149.68811 
L 223.685012 159.869461 
L 223.989681 134.570393 
L 224.294349 133.21569 
L 224.599017 107.507211 
L 224.903686 103.030281 
L 225.208354 101.573206 
L 225.513022 105.078206 
L 225.81769 96.78933 
L 226.122359 106.833517 
L 226.427027 108.092789 
L 226.731695 115.140067 
L 227.036364 101.528182 
L 227.341032 105.10711 
L 227.6457 103.119092 
L 227.950369 105.09252 
L 228.255037 99.680165 
L 228.559705 148.326212 
L 228.864373 165.211687 
L 229.169042 191.287711 
L 229.47371 136.787924 
L 229.778378 149.167963 
L 230.083047 121.800395 
L 230.387715 152.1195 
L 230.692383 161.401015 
L 230.997052 162.996433 
L 231.30172 152.95953 
L 231.606388 125.86977 
L 231.911057 136.881046 
L 232.215725 119.401399 
L 232.825061 96.272159 
L 233.12973 114.465891 
L 233.434398 160.537687 
L 233.739066 168.316503 
L 234.043735 149.813001 
L 234.348403 112.267814 
L 234.653071 123.255974 
L 234.95774 121.500883 
L 235.567076 102.009622 
L 235.871744 127.576536 
L 236.176413 163.675889 
L 236.481081 161.337315 
L 236.785749 164.72418 
L 237.090418 130.844727 
L 237.395086 132.18425 
L 237.699754 142.498115 
L 238.004423 146.332372 
L 238.309091 157.813961 
L 238.613759 122.354997 
L 238.918428 143.627482 
L 239.223096 135.723455 
L 239.527764 167.127485 
L 239.832432 142.540536 
L 240.137101 130.311855 
L 240.441769 98.688839 
L 240.746437 95.617209 
L 241.355774 168.737757 
L 241.660442 188.947805 
L 242.269779 150.909325 
L 242.574447 156.669669 
L 242.879115 153.180866 
L 243.183784 135.744374 
L 243.488452 141.769013 
L 243.79312 158.277566 
L 244.097789 159.982573 
L 244.707125 140.694154 
L 245.011794 139.022707 
L 245.62113 95.423393 
L 245.925799 154.638345 
L 246.230467 162.652311 
L 246.535135 160.945828 
L 246.839803 110.126983 
L 247.144472 108.486295 
L 247.44914 109.792094 
L 247.753808 105.615831 
L 248.058477 99.29937 
L 248.363145 115.959843 
L 248.972482 134.710685 
L 249.27715 137.940624 
L 249.886486 120.729558 
L 250.191155 112.546839 
L 250.495823 108.208889 
L 250.800491 115.245905 
L 251.10516 115.022466 
L 251.714496 126.923832 
L 252.019165 123.261518 
L 252.323833 160.352244 
L 252.93317 136.277026 
L 253.237838 115.37312 
L 253.542506 178.533392 
L 253.847174 176.704582 
L 254.151843 181.797368 
L 254.456511 143.959087 
L 254.761179 167.773632 
L 255.675184 101.835956 
L 255.979853 106.731611 
L 256.284521 118.076312 
L 256.589189 111.633179 
L 256.893857 130.267525 
L 257.198526 115.42169 
L 257.503194 125.078227 
L 257.807862 139.575449 
L 258.112531 138.004113 
L 258.417199 138.296237 
L 258.721867 122.700151 
L 259.026536 123.082399 
L 259.331204 122.2999 
L 259.635872 106.489538 
L 259.940541 119.522294 
L 260.245209 109.495805 
L 260.549877 111.036752 
L 260.854545 101.140801 
L 261.159214 101.147367 
L 261.463882 115.025338 
L 261.76855 116.247011 
L 262.073219 118.183388 
L 262.377887 93.482973 
L 262.682555 99.796983 
L 263.291892 151.653126 
L 263.59656 144.324536 
L 263.901229 129.355557 
L 264.205897 106.702706 
L 265.119902 86.851233 
L 265.729238 148.832026 
L 266.033907 150.299176 
L 266.338575 153.699617 
L 266.643243 129.659032 
L 266.947912 115.603672 
L 267.25258 112.242748 
L 267.557248 120.458652 
L 267.861916 118.407415 
L 268.166585 106.889708 
L 268.471253 113.76513 
L 268.775921 99.926241 
L 269.08059 93.460455 
L 269.385258 110.705337 
L 269.689926 104.069586 
L 269.994595 104.91755 
L 270.299263 139.306097 
L 270.603931 134.878516 
L 270.9086 136.704391 
L 271.213268 158.670639 
L 271.517936 136.986715 
L 271.822604 123.654017 
L 272.127273 122.016795 
L 272.431941 105.081182 
L 272.736609 98.151989 
L 273.041278 107.543099 
L 273.345946 112.535419 
L 273.650614 115.344322 
L 273.955283 115.590284 
L 274.259951 123.965499 
L 274.869287 185.017464 
L 275.173956 181.291724 
L 275.478624 161.217671 
L 275.783292 128.249857 
L 276.087961 116.563094 
L 276.392629 128.212298 
L 276.697297 145.003325 
L 277.001966 143.783515 
L 277.306634 125.628024 
L 277.611302 147.426141 
L 277.915971 218.532773 
L 278.220639 213.471591 
L 278.525307 224.413142 
L 278.829975 202.692366 
L 279.134644 117.93464 
L 279.439312 124.584885 
L 279.74398 105.014091 
L 280.048649 93.392106 
L 280.353317 101.890974 
L 280.657985 89.595576 
L 280.962654 104.139781 
L 281.267322 98.908949 
L 281.57199 86.209586 
L 281.876658 98.156761 
L 282.181327 115.74963 
L 282.485995 152.04441 
L 282.790663 159.932856 
L 283.095332 148.310643 
L 283.704668 97.316932 
L 284.314005 106.192958 
L 284.618673 117.490037 
L 284.923342 109.131141 
L 285.22801 154.741019 
L 285.532678 164.533313 
L 285.837346 151.108577 
L 286.142015 148.976178 
L 286.446683 99.821037 
L 286.751351 90.418826 
L 287.360688 105.266942 
L 287.665356 100.732535 
L 287.970025 108.856535 
L 288.579361 98.749325 
L 288.884029 131.380057 
L 289.188698 124.340442 
L 289.493366 129.613814 
L 289.798034 130.019644 
L 290.102703 110.573165 
L 290.712039 139.41605 
L 291.016708 173.925032 
L 291.321376 181.029993 
L 291.626044 184.348197 
L 291.930713 169.971836 
L 292.235381 142.373889 
L 292.540049 126.967394 
L 292.844717 105.787265 
L 293.149386 120.156974 
L 293.454054 121.672133 
L 293.758722 121.728152 
L 294.063391 132.793716 
L 294.368059 110.02195 
L 294.977396 148.653239 
L 295.282064 155.511557 
L 295.586732 155.422671 
L 295.8914 129.221303 
L 296.196069 128.624647 
L 296.500737 112.145192 
L 296.805405 136.867392 
L 297.110074 134.306309 
L 297.414742 109.910458 
L 297.71941 136.287247 
L 298.024079 113.55408 
L 298.328747 118.44322 
L 298.633415 134.760012 
L 298.938084 115.190861 
L 299.242752 131.01651 
L 299.54742 139.400297 
L 299.852088 129.130692 
L 300.156757 132.421957 
L 300.461425 123.219492 
L 300.766093 105.134933 
L 301.070762 130.746674 
L 301.37543 123.991087 
L 301.680098 134.622989 
L 301.984767 152.36637 
L 302.289435 117.55633 
L 302.594103 122.146991 
L 302.898771 122.303749 
L 303.20344 111.122598 
L 303.508108 121.080259 
L 304.726781 89.039932 
L 305.03145 116.746242 
L 305.336118 107.251191 
L 305.640786 118.818632 
L 305.945455 137.552845 
L 306.250123 128.961844 
L 306.859459 151.822294 
L 307.164128 148.241611 
L 307.468796 155.024213 
L 307.773464 154.820658 
L 308.078133 128.627295 
L 308.382801 120.272568 
L 308.687469 101.342375 
L 308.992138 91.892625 
L 309.296806 91.775132 
L 309.601474 83.800978 
L 309.906143 110.557627 
L 310.210811 106.034454 
L 310.515479 111.384311 
L 310.820147 112.978665 
L 311.124816 91.996224 
L 311.429484 96.918797 
L 311.734152 138.325429 
L 312.038821 136.723284 
L 312.343489 136.669962 
L 312.648157 135.386068 
L 312.952826 101.00844 
L 313.257494 115.588582 
L 313.562162 102.388081 
L 313.86683 99.14522 
L 314.476167 80.140159 
L 314.780835 88.574481 
L 315.085504 93.36428 
L 315.390172 94.87563 
L 315.69484 112.386167 
L 315.999509 113.531192 
L 316.304177 108.140522 
L 316.608845 118.761873 
L 316.913514 124.142088 
L 317.218182 142.635918 
L 317.52285 183.77797 
L 317.827518 207.394558 
L 318.436855 170.029345 
L 318.741523 132.032501 
L 319.046192 146.639132 
L 319.35086 136.693676 
L 319.655528 152.792174 
L 319.960197 149.980296 
L 320.264865 116.236771 
L 320.569533 119.456591 
L 320.874201 96.635295 
L 321.17887 112.696485 
L 321.483538 105.591828 
L 321.788206 105.702557 
L 322.092875 109.303748 
L 322.397543 120.785845 
L 322.702211 112.670447 
L 323.00688 114.448421 
L 323.311548 111.661735 
L 323.616216 85.11081 
L 323.920885 106.072815 
L 324.225553 106.112778 
L 324.530221 119.25684 
L 324.834889 120.927581 
L 325.139558 131.217682 
L 325.444226 137.644789 
L 325.748894 136.088308 
L 326.053563 132.940026 
L 326.358231 117.560934 
L 326.662899 143.001991 
L 326.967568 134.760829 
L 327.576904 181.437526 
L 327.881572 179.228865 
L 328.186241 172.880004 
L 328.490909 150.953434 
L 328.795577 120.228434 
L 329.100246 114.632336 
L 329.404914 123.1461 
L 329.709582 118.149801 
L 330.014251 182.27224 
L 330.318919 166.818535 
L 330.623587 170.569301 
L 330.928256 170.502978 
L 331.232924 129.206962 
L 331.537592 129.888409 
L 331.84226 124.111463 
L 332.146929 129.212852 
L 332.451597 119.876257 
L 332.756265 127.751323 
L 333.365602 121.422324 
L 333.67027 108.757955 
L 333.974939 102.607386 
L 334.279607 195.466184 
L 334.584275 202.517788 
L 334.888943 197.97258 
L 335.193612 188.392199 
L 335.49828 113.127044 
L 335.802948 114.775512 
L 336.107617 152.041838 
L 336.412285 155.213045 
L 337.32629 132.993529 
L 337.935627 139.02906 
L 338.240295 166.145998 
L 338.544963 153.106095 
L 338.849631 167.06844 
L 339.1543 149.141081 
L 339.458968 119.042703 
L 339.763636 118.182986 
L 340.068305 110.27857 
L 340.372973 120.163215 
L 340.677641 149.540459 
L 341.286978 127.065122 
L 341.591646 117.739856 
L 341.896314 94.99283 
L 342.200983 110.96785 
L 342.505651 108.217818 
L 342.810319 116.840286 
L 343.114988 112.02909 
L 343.419656 99.992914 
L 343.724324 109.509215 
L 344.028993 100.969257 
L 344.333661 179.946052 
L 344.638329 189.286938 
L 344.942998 183.82901 
L 345.247666 189.439754 
L 345.552334 130.016122 
L 345.857002 118.229248 
L 346.161671 114.933771 
L 346.466339 109.818143 
L 346.771007 88.555165 
L 347.380344 98.576471 
L 347.685012 100.462042 
L 347.989681 110.501872 
L 348.294349 100.980667 
L 348.599017 102.315756 
L 348.903686 101.905442 
L 349.208354 88.645802 
L 349.513022 110.809267 
L 349.81769 153.909047 
L 350.427027 176.862888 
L 350.731695 160.059515 
L 351.036364 132.672621 
L 351.341032 128.047395 
L 351.950369 151.828864 
L 352.559705 126.630026 
L 352.864373 106.776687 
L 353.169042 98.173727 
L 353.47371 150.15514 
L 353.778378 153.543707 
L 354.083047 152.55522 
L 354.387715 147.64477 
L 354.692383 87.116467 
L 354.997052 88.696318 
L 355.30172 137.604127 
L 355.606388 155.71326 
L 355.911057 199.53176 
L 356.215725 202.598619 
L 356.520393 155.708228 
L 356.825061 161.501692 
L 357.12973 124.752691 
L 357.434398 140.049316 
L 357.739066 138.541211 
L 358.043735 114.587367 
L 358.348403 141.343613 
L 358.653071 135.009705 
L 358.95774 151.850468 
L 359.262408 148.384747 
L 359.871744 116.85748 
L 360.176413 102.870289 
L 360.481081 129.913874 
L 360.785749 117.150881 
L 361.090418 117.047986 
L 361.395086 145.448438 
L 361.699754 120.739547 
L 362.004423 125.870225 
L 362.309091 138.901333 
L 362.613759 117.630201 
L 362.918428 121.079792 
L 363.223096 141.682797 
L 363.527764 133.517589 
L 363.832432 137.588273 
L 364.137101 134.321758 
L 364.441769 115.167899 
L 364.746437 113.376543 
L 365.051106 105.395672 
L 365.355774 107.105385 
L 365.660442 121.473469 
L 365.965111 114.844971 
L 366.269779 150.02355 
L 366.574447 158.920097 
L 366.879115 150.359445 
L 367.183784 153.648425 
L 367.488452 120.738087 
L 367.79312 141.523032 
L 368.097789 134.556713 
L 368.402457 147.718706 
L 368.707125 136.348776 
L 369.011794 151.949246 
L 369.62113 136.003023 
L 369.925799 220.735103 
L 370.230467 170.074673 
L 370.535135 179.688937 
L 370.839803 174.347671 
L 371.144472 97.56935 
L 371.44914 138.678328 
L 371.753808 162.009046 
L 372.363145 189.027815 
L 372.972482 118.594982 
L 373.27715 110.465359 
L 373.581818 127.787725 
L 373.581818 127.787725 
" style="fill:none;stroke:#ff7f0e;stroke-linecap:round;stroke-width:1.5;"/>
   </g>
   <g id="patch_3">
    <path d="M 54 252 
L 54 34.56 
" style="fill:none;"/>
   </g>
   <g id="patch_4">
    <path d="M 388.8 252 
L 388.8 34.56 
" style="fill:none;"/>
   </g>
   <g id="patch_5">
    <path d="M 54 252 
L 388.8 252 
" style="fill:none;"/>
   </g>
   <g id="patch_6">
    <path d="M 54 34.56 
L 388.8 34.56 
" style="fill:none;"/>
   </g>
   <g id="text_14">
    <!-- Delays pattern with respect to worker0 -->
    <defs>
     <path d="M 41.109375 46.296875 
Q 39.59375 47.171875 37.8125 47.578125 
Q 36.03125 48 33.890625 48 
Q 26.265625 48 22.1875 43.046875 
Q 18.109375 38.09375 18.109375 28.8125 
L 18.109375 0 
L 9.078125 0 
L 9.078125 54.6875 
L 18.109375 54.6875 
L 18.109375 46.1875 
Q 20.953125 51.171875 25.484375 53.578125 
Q 30.03125 56 36.53125 56 
Q 37.453125 56 38.578125 55.875 
Q 39.703125 55.765625 41.0625 55.515625 
z
" id="DejaVuSans-72"/>
     <path d="M 54.890625 33.015625 
L 54.890625 0 
L 45.90625 0 
L 45.90625 32.71875 
Q 45.90625 40.484375 42.875 44.328125 
Q 39.84375 48.1875 33.796875 48.1875 
Q 26.515625 48.1875 22.3125 43.546875 
Q 18.109375 38.921875 18.109375 30.90625 
L 18.109375 0 
L 9.078125 0 
L 9.078125 54.6875 
L 18.109375 54.6875 
L 18.109375 46.1875 
Q 21.34375 51.125 25.703125 53.5625 
Q 30.078125 56 35.796875 56 
Q 45.21875 56 50.046875 50.171875 
Q 54.890625 44.34375 54.890625 33.015625 
z
" id="DejaVuSans-6e"/>
     <path d="M 4.203125 54.6875 
L 13.1875 54.6875 
L 24.421875 12.015625 
L 35.59375 54.6875 
L 46.1875 54.6875 
L 57.421875 12.015625 
L 68.609375 54.6875 
L 77.59375 54.6875 
L 63.28125 0 
L 52.6875 0 
L 40.921875 44.828125 
L 29.109375 0 
L 18.5 0 
z
" id="DejaVuSans-77"/>
     <path d="M 9.421875 54.6875 
L 18.40625 54.6875 
L 18.40625 0 
L 9.421875 0 
z
M 9.421875 75.984375 
L 18.40625 75.984375 
L 18.40625 64.59375 
L 9.421875 64.59375 
z
" id="DejaVuSans-69"/>
     <path d="M 54.890625 33.015625 
L 54.890625 0 
L 45.90625 0 
L 45.90625 32.71875 
Q 45.90625 40.484375 42.875 44.328125 
Q 39.84375 48.1875 33.796875 48.1875 
Q 26.515625 48.1875 22.3125 43.546875 
Q 18.109375 38.921875 18.109375 30.90625 
L 18.109375 0 
L 9.078125 0 
L 9.078125 75.984375 
L 18.109375 75.984375 
L 18.109375 46.1875 
Q 21.34375 51.125 25.703125 53.5625 
Q 30.078125 56 35.796875 56 
Q 45.21875 56 50.046875 50.171875 
Q 54.890625 44.34375 54.890625 33.015625 
z
" id="DejaVuSans-68"/>
     <path d="M 48.78125 52.59375 
L 48.78125 44.1875 
Q 44.96875 46.296875 41.140625 47.34375 
Q 37.3125 48.390625 33.40625 48.390625 
Q 24.65625 48.390625 19.8125 42.84375 
Q 14.984375 37.3125 14.984375 27.296875 
Q 14.984375 17.28125 19.8125 11.734375 
Q 24.65625 6.203125 33.40625 6.203125 
Q 37.3125 6.203125 41.140625 7.25 
Q 44.96875 8.296875 48.78125 10.40625 
L 48.78125 2.09375 
Q 45.015625 0.34375 40.984375 -0.53125 
Q 36.96875 -1.421875 32.421875 -1.421875 
Q 20.0625 -1.421875 12.78125 6.34375 
Q 5.515625 14.109375 5.515625 27.296875 
Q 5.515625 40.671875 12.859375 48.328125 
Q 20.21875 56 33.015625 56 
Q 37.15625 56 41.109375 55.140625 
Q 45.0625 54.296875 48.78125 52.59375 
z
" id="DejaVuSans-63"/>
     <path d="M 9.078125 75.984375 
L 18.109375 75.984375 
L 18.109375 31.109375 
L 44.921875 54.6875 
L 56.390625 54.6875 
L 27.390625 29.109375 
L 57.625 0 
L 45.90625 0 
L 18.109375 26.703125 
L 18.109375 0 
L 9.078125 0 
z
" id="DejaVuSans-6b"/>
    </defs>
    <g style="fill:#262626;" transform="translate(103.704375 28.56)scale(0.12 -0.12)">
     <use xlink:href="#DejaVuSans-44"/>
     <use x="77.001953" xlink:href="#DejaVuSans-65"/>
     <use x="138.525391" xlink:href="#DejaVuSans-6c"/>
     <use x="166.308594" xlink:href="#DejaVuSans-61"/>
     <use x="227.587891" xlink:href="#DejaVuSans-79"/>
     <use x="286.767578" xlink:href="#DejaVuSans-73"/>
     <use x="338.867188" xlink:href="#DejaVuSans-20"/>
     <use x="370.654297" xlink:href="#DejaVuSans-70"/>
     <use x="434.130859" xlink:href="#DejaVuSans-61"/>
     <use x="495.410156" xlink:href="#DejaVuSans-74"/>
     <use x="534.619141" xlink:href="#DejaVuSans-74"/>
     <use x="573.828125" xlink:href="#DejaVuSans-65"/>
     <use x="635.351562" xlink:href="#DejaVuSans-72"/>
     <use x="676.449219" xlink:href="#DejaVuSans-6e"/>
     <use x="739.828125" xlink:href="#DejaVuSans-20"/>
     <use x="771.615234" xlink:href="#DejaVuSans-77"/>
     <use x="853.402344" xlink:href="#DejaVuSans-69"/>
     <use x="881.185547" xlink:href="#DejaVuSans-74"/>
     <use x="920.394531" xlink:href="#DejaVuSans-68"/>
     <use x="983.773438" xlink:href="#DejaVuSans-20"/>
     <use x="1015.560547" xlink:href="#DejaVuSans-72"/>
     <use x="1056.642578" xlink:href="#DejaVuSans-65"/>
     <use x="1118.166016" xlink:href="#DejaVuSans-73"/>
     <use x="1170.265625" xlink:href="#DejaVuSans-70"/>
     <use x="1233.742188" xlink:href="#DejaVuSans-65"/>
     <use x="1295.265625" xlink:href="#DejaVuSans-63"/>
     <use x="1350.246094" xlink:href="#DejaVuSans-74"/>
     <use x="1389.455078" xlink:href="#DejaVuSans-20"/>
     <use x="1421.242188" xlink:href="#DejaVuSans-74"/>
     <use x="1460.451172" xlink:href="#DejaVuSans-6f"/>
     <use x="1521.632812" xlink:href="#DejaVuSans-20"/>
     <use x="1553.419922" xlink:href="#DejaVuSans-77"/>
     <use x="1635.207031" xlink:href="#DejaVuSans-6f"/>
     <use x="1696.388672" xlink:href="#DejaVuSans-72"/>
     <use x="1737.501953" xlink:href="#DejaVuSans-6b"/>
     <use x="1795.365234" xlink:href="#DejaVuSans-65"/>
     <use x="1856.888672" xlink:href="#DejaVuSans-72"/>
     <use x="1898.001953" xlink:href="#DejaVuSans-30"/>
    </g>
   </g>
   <g id="legend_1">
    <g id="line2d_25">
     <path d="M 63 222.742188 
L 83 222.742188 
" style="fill:none;stroke:#1f77b4;stroke-linecap:round;stroke-width:1.5;"/>
    </g>
    <g id="line2d_26"/>
    <g id="text_15">
     <!-- Worker1 -->
     <defs>
      <path d="M 3.328125 72.90625 
L 13.28125 72.90625 
L 28.609375 11.28125 
L 43.890625 72.90625 
L 54.984375 72.90625 
L 70.3125 11.28125 
L 85.59375 72.90625 
L 95.609375 72.90625 
L 77.296875 0 
L 64.890625 0 
L 49.515625 63.28125 
L 33.984375 0 
L 21.578125 0 
z
" id="DejaVuSans-57"/>
     </defs>
     <g style="fill:#262626;" transform="translate(91 226.242188)scale(0.1 -0.1)">
      <use xlink:href="#DejaVuSans-57"/>
      <use x="98.798828" xlink:href="#DejaVuSans-6f"/>
      <use x="159.980469" xlink:href="#DejaVuSans-72"/>
      <use x="201.09375" xlink:href="#DejaVuSans-6b"/>
      <use x="258.957031" xlink:href="#DejaVuSans-65"/>
      <use x="320.480469" xlink:href="#DejaVuSans-72"/>
      <use x="361.59375" xlink:href="#DejaVuSans-31"/>
     </g>
    </g>
    <g id="line2d_27">
     <path d="M 63 237.420312 
L 83 237.420312 
" style="fill:none;stroke:#ff7f0e;stroke-linecap:round;stroke-width:1.5;"/>
    </g>
    <g id="line2d_28"/>
    <g id="text_16">
     <!-- Worker3 -->
     <defs>
      <path d="M 40.578125 39.3125 
Q 47.65625 37.796875 51.625 33 
Q 55.609375 28.21875 55.609375 21.1875 
Q 55.609375 10.40625 48.1875 4.484375 
Q 40.765625 -1.421875 27.09375 -1.421875 
Q 22.515625 -1.421875 17.65625 -0.515625 
Q 12.796875 0.390625 7.625 2.203125 
L 7.625 11.71875 
Q 11.71875 9.328125 16.59375 8.109375 
Q 21.484375 6.890625 26.8125 6.890625 
Q 36.078125 6.890625 40.9375 10.546875 
Q 45.796875 14.203125 45.796875 21.1875 
Q 45.796875 27.640625 41.28125 31.265625 
Q 36.765625 34.90625 28.71875 34.90625 
L 20.21875 34.90625 
L 20.21875 43.015625 
L 29.109375 43.015625 
Q 36.375 43.015625 40.234375 45.921875 
Q 44.09375 48.828125 44.09375 54.296875 
Q 44.09375 59.90625 40.109375 62.90625 
Q 36.140625 65.921875 28.71875 65.921875 
Q 24.65625 65.921875 20.015625 65.03125 
Q 15.375 64.15625 9.8125 62.3125 
L 9.8125 71.09375 
Q 15.4375 72.65625 20.34375 73.4375 
Q 25.25 74.21875 29.59375 74.21875 
Q 40.828125 74.21875 47.359375 69.109375 
Q 53.90625 64.015625 53.90625 55.328125 
Q 53.90625 49.265625 50.4375 45.09375 
Q 46.96875 40.921875 40.578125 39.3125 
z
" id="DejaVuSans-33"/>
     </defs>
     <g style="fill:#262626;" transform="translate(91 240.920312)scale(0.1 -0.1)">
      <use xlink:href="#DejaVuSans-57"/>
      <use x="98.798828" xlink:href="#DejaVuSans-6f"/>
      <use x="159.980469" xlink:href="#DejaVuSans-72"/>
      <use x="201.09375" xlink:href="#DejaVuSans-6b"/>
      <use x="258.957031" xlink:href="#DejaVuSans-65"/>
      <use x="320.480469" xlink:href="#DejaVuSans-72"/>
      <use x="361.59375" xlink:href="#DejaVuSans-33"/>
     </g>
    </g>
   </g>
  </g>
 </g>
 <defs>
  <clipPath id="p12722d00d9">
   <rect height="217.44" width="334.8" x="54" y="34.56"/>
  </clipPath>
 </defs>
</svg>
